<svg width="138" height="48" viewBox="0 0 138 48" fill="none" xmlns="http://www.w3.org/2000/svg">
<path d="M16.1539 0H23.646V34.7658C19.8031 35.4977 16.9808 35.7903 13.9152 35.7903C4.76794 35.7903 0 31.6452 0 23.695C0 16.0373 5.05973 11.0633 12.8921 11.0633C14.1089 11.0633 15.0327 11.1604 16.1514 11.4529L16.1539 0ZM16.1539 17.5012C15.2785 17.2087 14.5484 17.1116 13.6246 17.1116C9.83015 17.1116 7.63988 19.4517 7.63988 23.5494C7.63988 27.5488 9.73206 29.7433 13.575 29.7433C14.4382 29.7417 15.3001 29.6768 16.1539 29.5491V17.5012ZM35.5658 11.6011V29.0126C35.5658 35.0123 35.1275 37.8877 33.8275 40.3772C32.6107 42.7671 31.0053 44.2794 27.6975 45.9375L20.7405 42.6202C24.0495 41.0593 25.6537 39.695 26.6756 37.5964C27.7459 35.4504 28.0874 32.9634 28.0874 26.4273V11.6148L35.5658 11.6011ZM28.0737 0.043566H35.5658V7.76101H28.0737V0.043566ZM40.0904 13.3076C43.3994 11.7467 46.547 11.0646 50.0162 11.0646C53.8591 11.0646 56.3896 12.089 57.5083 14.0893C58.1291 15.2096 58.3352 16.6747 58.3352 19.7965V35.0708C54.9778 35.5587 50.745 35.8998 47.6322 35.8998C41.3569 35.8998 38.5346 33.7041 38.5346 28.8271C38.5346 23.5594 42.2807 21.1097 51.4764 20.3404V18.6824C51.4764 17.3169 50.7934 16.8153 48.8974 16.8153C46.1248 16.8153 43.012 17.5958 40.0917 19.1081V13.3039L40.0904 13.3076ZM51.8153 25.2572C46.8524 25.7451 45.2346 26.5268 45.2346 28.4761C45.2346 29.9387 46.1596 30.6221 48.2145 30.6221C49.332 30.6221 50.3551 30.525 51.8153 30.281V25.2572ZM61.9969 12.7724C66.4233 11.6023 70.0725 11.0671 73.7702 11.0671C77.6131 11.0671 80.3882 11.9446 82.0421 13.6524C83.5991 15.2619 84.0846 17.017 84.0846 20.7724V35.5015H76.5925V21.0624C76.5925 18.1845 75.619 17.1116 72.942 17.1116C71.9201 17.1116 70.9963 17.2087 69.4877 17.6468V35.4965H61.9832L61.9969 12.7724ZM86.9851 39.5967C89.6124 40.9622 92.2397 41.5958 95.0123 41.5958C99.9256 41.5958 102.018 39.5967 102.018 34.8169V34.67C100.559 35.4007 99.0999 35.6944 97.1529 35.6944C90.5722 35.6944 86.4003 31.354 86.4003 24.4767C86.4003 15.9403 92.5799 11.1131 103.525 11.1131C106.736 11.1131 109.705 11.4542 113.304 12.1861L110.739 17.6045C108.744 17.2149 110.578 17.5522 109.072 17.4053V18.1858L109.168 21.3549L109.218 25.4526C109.268 26.4771 109.268 27.5015 109.317 28.5247V30.5735C109.317 37.0114 108.783 40.0336 107.177 42.5231C104.842 46.1827 100.803 48 95.062 48C92.1441 48 89.6136 47.5606 86.9863 46.5362V39.6104L86.9851 39.5967ZM101.885 17.1614H101.106C99.6474 17.1116 97.9451 17.5024 96.7767 18.2343C94.9763 19.2588 94.0525 21.1122 94.0525 23.7461C94.0525 27.5015 95.915 29.6462 99.2104 29.6462C100.232 29.6462 101.073 29.4508 102.031 29.1582V26.5729C102.031 25.6954 101.982 24.7058 101.982 23.695L101.932 20.2321L101.882 17.7451V17.1601L101.885 17.1614ZM124.935 10.9675C132.427 10.9675 137 15.6975 137 23.3565C137 31.1984 132.232 36.1351 124.642 36.1351C117.15 36.1351 112.527 31.405 112.527 23.7959C112.527 15.8942 117.295 10.9687 124.934 10.9687L124.935 10.9675ZM124.788 30.0868C127.659 30.0868 129.363 27.6969 129.363 23.5519C129.363 19.4442 127.709 17.017 124.838 17.017C121.858 17.017 120.167 19.4069 120.167 23.5519C120.167 27.6969 121.87 30.0868 124.788 30.0868Z" fill="#092E20"/>
</svg>
