<svg width="188" height="48" viewBox="0 0 188 48" fill="none" xmlns="http://www.w3.org/2000/svg">
<g clip-path="url(#clip0_48_39)">
<path d="M51.6258 9.42242L53.055 10.455C55.5405 12.4557 56.9698 14.7145 57.2804 17.2959C59.9524 16.7797 63.3701 17.1669 64.8614 18.1995L66.2285 19.0385L65.9799 19.5547C65.545 20.5228 65.4207 20.781 65.3586 20.91C62.9351 25.7503 58.1504 25.8148 55.9134 25.7503C50.2587 39.8839 38.2037 47.6929 21.9232 47.6929C14.4044 47.6929 8.68755 45.3051 4.83491 40.5938C-0.260508 34.3983 -0.260509 26.3311 0.174466 23.7497L0.298745 23.2334H45.2254C47.5867 23.2334 49.3888 22.588 50.2587 22.0717C49.3266 20.6519 49.0159 19.0385 48.9538 18.1349C48.7674 15.5534 49.3888 12.8429 50.6315 10.9068L51.6258 9.42242ZM90.553 12.4191C91.0543 12.4191 91.4787 12.5868 91.8261 12.9222C92.1736 13.2576 92.3474 13.681 92.3474 14.1926V30.1545C92.3474 32.8149 91.4132 35.0659 89.5447 36.9076C87.6535 38.7721 85.3977 39.7044 82.7773 39.7044C80.1342 39.7044 77.8784 38.7721 76.0099 36.9076C74.1415 35.0431 73.2073 32.7921 73.2073 30.1545C73.2073 27.5169 74.1415 25.2659 76.0099 23.4014C77.8784 21.5369 80.1342 20.6047 82.7773 20.6047C85.0445 20.6047 87.044 21.3039 88.7757 22.7022V14.1926C88.7757 13.681 88.9437 13.2576 89.2798 12.9222C89.6159 12.5868 90.0403 12.4191 90.553 12.4191ZM103.952 20.6047C106.572 20.6047 108.828 21.5369 110.719 23.4014C111.653 24.3337 112.351 25.3625 112.813 26.4881C113.274 27.6136 113.51 28.8357 113.522 30.1545C113.522 32.8149 112.588 35.0659 110.719 36.9076C108.828 38.7721 106.572 39.7044 103.952 39.7044C101.309 39.7044 99.0528 38.7721 97.1843 36.9076C95.3159 35.0431 94.3817 32.7921 94.3817 30.1545C94.3817 27.5169 95.3159 25.2659 97.1843 23.4014C99.0528 21.5369 101.309 20.6047 103.952 20.6047ZM125.092 20.6047C127.496 20.6047 129.575 21.3778 131.33 22.9239C131.74 23.2877 131.945 23.7368 131.945 24.2711C131.945 24.7827 131.777 25.2091 131.441 25.5501C131.105 25.8912 130.68 26.0617 130.168 26.0617C129.735 26.0617 129.347 25.9253 129.005 25.6525C128.424 25.1636 127.815 24.7941 127.177 24.544C126.539 24.2939 125.844 24.1688 125.092 24.1688C124.26 24.1688 123.48 24.3251 122.751 24.6378C122.022 24.9504 121.384 25.3768 120.837 25.9168C120.29 26.4568 119.86 27.0906 119.546 27.8182C119.233 28.5458 119.077 29.3246 119.077 30.1545C119.077 30.9845 119.233 31.7632 119.546 32.4908C119.86 33.2184 120.29 33.8522 120.837 34.3923C121.384 34.9323 122.022 35.3586 122.751 35.6713C123.48 35.9839 124.26 36.1402 125.092 36.1402C125.844 36.1402 126.539 36.018 127.177 35.7736C127.815 35.5291 128.419 35.1625 128.988 34.6736C129.307 34.4349 129.683 34.3098 130.116 34.2985C130.629 34.2985 131.053 34.4662 131.389 34.8015C131.726 35.1369 131.894 35.5604 131.894 36.072C131.894 36.5722 131.706 37.0099 131.33 37.3851C129.564 38.9313 127.484 39.7044 125.092 39.7044C122.449 39.7044 120.193 38.7721 118.325 36.9076C116.456 35.0431 115.522 32.7921 115.522 30.1545C115.522 27.5169 116.456 25.2659 118.325 23.4014C120.193 21.5369 122.449 20.6047 125.092 20.6047ZM135.756 12.4191C136.246 12.4191 136.665 12.5925 137.012 12.9392C137.36 13.286 137.534 13.7095 137.534 14.2097V27.5113L147.753 20.8775C148.038 20.6956 148.357 20.6047 148.71 20.6047C148.961 20.6047 149.194 20.6502 149.411 20.7411C149.627 20.8321 149.815 20.96 149.975 21.1248C150.134 21.2897 150.262 21.4801 150.359 21.6961C150.456 21.9121 150.505 22.1395 150.505 22.3782C150.505 23.0149 150.277 23.4867 149.821 23.7936L142.661 28.4321L150.009 36.6859C150.339 37.0497 150.505 37.4647 150.505 37.9308C150.505 38.1696 150.456 38.3969 150.359 38.613C150.262 38.829 150.134 39.0194 149.975 39.1842C149.815 39.3491 149.627 39.477 149.411 39.5679C149.194 39.6589 148.961 39.7044 148.71 39.7044C148.232 39.7044 147.833 39.5509 147.514 39.2439L139.619 30.3933L137.534 31.7575V37.9138C137.534 38.4026 137.36 38.8233 137.012 39.1757C136.665 39.5282 136.246 39.7044 135.756 39.7044C135.255 39.7044 134.831 39.5282 134.483 39.1757C134.136 38.8233 133.962 38.4026 133.962 37.9138V14.2097C133.962 13.7095 134.136 13.286 134.483 12.9392C134.831 12.5925 135.255 12.4191 135.756 12.4191ZM162.006 20.6047C164.627 20.6047 166.883 21.5369 168.774 23.4014C169.708 24.3223 170.409 25.3483 170.876 26.4795C171.343 27.6107 171.576 28.8357 171.576 30.1545C171.576 30.6661 171.403 31.0896 171.055 31.425C170.708 31.7604 170.283 31.9281 169.782 31.9281H156.247C156.441 32.5534 156.726 33.1246 157.102 33.6419C157.478 34.1592 157.919 34.6026 158.426 34.9721C158.933 35.3416 159.491 35.6286 160.101 35.8333C160.71 36.0379 161.346 36.1402 162.006 36.1402C162.758 36.1402 163.448 36.0265 164.074 35.7992C164.701 35.5718 165.282 35.2307 165.817 34.776C166.159 34.4917 166.552 34.3439 166.996 34.3326C167.509 34.3326 167.934 34.5003 168.27 34.8357C168.606 35.171 168.774 35.5945 168.774 36.1061C168.774 36.6064 168.603 37.0327 168.261 37.3851C166.495 38.9313 164.41 39.7044 162.006 39.7044C159.363 39.7044 157.107 38.7721 155.239 36.9076C153.371 35.0431 152.436 32.7921 152.436 30.1545C152.436 27.5169 153.371 25.2659 155.239 23.4014C157.107 21.5369 159.363 20.6047 162.006 20.6047ZM183.112 20.6047C183.614 20.6047 184.152 20.6388 184.727 20.707C185.303 20.7752 185.832 20.8974 186.317 21.0736C186.801 21.2499 187.202 21.4915 187.521 21.7984C187.84 22.1054 188 22.5033 188 22.9921C188 23.2423 187.952 23.4753 187.855 23.6913C187.758 23.9073 187.63 24.0978 187.47 24.2626C187.311 24.4275 187.123 24.5554 186.906 24.6463C186.69 24.7373 186.456 24.7827 186.206 24.7827C185.989 24.7827 185.739 24.7202 185.454 24.5952C184.736 24.3109 183.956 24.1688 183.112 24.1688C182.281 24.1688 181.5 24.3251 180.771 24.6378C180.042 24.9504 179.407 25.3768 178.866 25.9168C178.325 26.4568 177.897 27.0906 177.584 27.8182C177.271 28.5458 177.114 29.3246 177.114 30.1545V37.9308C177.114 38.4197 176.94 38.8375 176.593 39.1842C176.245 39.531 175.827 39.7044 175.337 39.7044C174.835 39.7044 174.411 39.531 174.064 39.1842C173.716 38.8375 173.542 38.4197 173.542 37.9308V22.3782C173.542 21.8894 173.716 21.4716 174.064 21.1248C174.411 20.7781 174.835 20.6047 175.337 20.6047C175.827 20.6047 176.245 20.7781 176.593 21.1248C176.94 21.4716 177.114 21.8894 177.114 22.3782V22.7193C177.969 22.0372 178.897 21.5142 179.9 21.1504C180.902 20.7866 181.973 20.6047 183.112 20.6047ZM82.7773 24.1688C81.9342 24.1688 81.1481 24.328 80.419 24.6463C79.6898 24.9646 79.0575 25.3938 78.5221 25.9338C77.9866 26.4739 77.5622 27.1077 77.2489 27.8353C76.9356 28.5629 76.7789 29.336 76.7789 30.1545C76.7789 30.9731 76.9356 31.7462 77.2489 32.4738C77.5622 33.2014 77.9866 33.8352 78.5221 34.3752C79.0575 34.9152 79.6898 35.3444 80.419 35.6627C81.1481 35.9811 81.9342 36.1402 82.7773 36.1402C83.609 36.1402 84.3894 35.9811 85.1186 35.6627C85.8477 35.3444 86.4829 34.9124 87.024 34.3667C87.5652 33.821 87.9924 33.1872 88.3057 32.4652C88.619 31.7433 88.7757 30.9731 88.7757 30.1545C88.7757 29.336 88.619 28.5657 88.3057 27.8438C87.9924 27.1219 87.5652 26.4881 87.024 25.9424C86.4829 25.3967 85.8477 24.9646 85.1186 24.6463C84.3894 24.328 83.609 24.1688 82.7773 24.1688ZM103.952 24.1688C103.109 24.1688 102.323 24.328 101.593 24.6463C100.864 24.9646 100.232 25.3938 99.6965 25.9338C99.161 26.4739 98.7366 27.1077 98.4233 27.8353C98.11 28.5629 97.9534 29.336 97.9534 30.1545C97.9534 30.9731 98.11 31.7462 98.4233 32.4738C98.7366 33.2014 99.161 33.8352 99.6965 34.3752C100.232 34.9152 100.864 35.3444 101.593 35.6627C102.323 35.9811 103.109 36.1402 103.952 36.1402C104.783 36.1402 105.564 35.9811 106.293 35.6627C107.022 35.3444 107.657 34.9124 108.198 34.3667C108.74 33.821 109.167 33.1872 109.48 32.4652C109.793 31.7433 109.95 30.9731 109.95 30.1545C109.95 29.336 109.793 28.5657 109.48 27.8438C109.167 27.1219 108.74 26.4881 108.198 25.9424C107.657 25.3967 107.022 24.9646 106.293 24.6463C105.564 24.328 104.783 24.1688 103.952 24.1688ZM162.006 24.1688C161.357 24.1688 160.725 24.2711 160.109 24.4758C159.494 24.6804 158.93 24.9675 158.418 25.337C157.905 25.7065 157.461 26.1498 157.085 26.6671C156.709 27.1844 156.43 27.7557 156.247 28.381H167.766C167.572 27.7557 167.284 27.1844 166.902 26.6671C166.521 26.1498 166.077 25.7065 165.57 25.337C165.063 24.9675 164.504 24.6804 163.895 24.4758C163.285 24.2711 162.656 24.1688 162.006 24.1688ZM11.9809 15.4889V21.9426H5.14561V15.4889H11.9809ZM20.059 15.4889V21.9426H13.2237V15.4889H20.059ZM28.1371 15.4889V21.9426H21.3018V15.4889H28.1371ZM36.2152 15.4889V21.9426H29.3799V15.4889H36.2152ZM44.2933 15.4889V21.9426H37.458V15.4889H44.2933ZM36.2152 7.74445V14.1982H29.3799V7.74445H36.2152ZM28.1371 7.74445V14.1982H21.3018V7.74445H28.1371ZM20.059 7.74445V14.1982H13.2237V7.74445H20.059ZM36.2152 0V6.45371H29.3799V0H36.2152Z" fill="#2396ED"/>
</g>
<defs>
<clipPath id="clip0_48_39">
<rect width="188" height="48" fill="white"/>
</clipPath>
</defs>
</svg>
