<svg width="237" height="48" viewBox="0 0 237 48" fill="none" xmlns="http://www.w3.org/2000/svg">
<g clip-path="url(#clip0_48_90)">
<path d="M198.832 0.0198356V7.61702H182.456V47.5848H174.267V7.61702H157.55V0.0198356H198.832ZM200.672 43.0535C201.249 43.0535 201.754 43.2606 202.181 43.6749C202.614 44.0891 202.83 44.5852 202.836 45.163C202.83 45.5554 202.73 45.9152 202.53 46.2368C202.325 46.5639 202.065 46.8201 201.737 47.0054C201.415 47.1962 201.06 47.2943 200.672 47.2943C200.073 47.2943 199.562 47.0872 199.135 46.6729C198.708 46.2587 198.497 45.7571 198.503 45.163C198.497 44.5852 198.708 44.0891 199.135 43.6749C199.562 43.2606 200.073 43.0535 200.672 43.0535ZM38.3812 47.5848L8.18799 10.167V47.565H0V0H10.235L48.3799 47.2286L48.3805 7.61702L48.3771 0.0198356H89.6582V7.61702H56.5685V19.8386H83.1792V27.4357H56.5685V39.9876H89.6582V47.5848H38.3812ZM115.901 27.3631L121.267 34.0156L110.271 47.641H99.525L115.901 27.3631ZM110.271 0.0396737L124.125 17.1951L137.936 0.0924743L148.653 0.0759627L129.49 23.8385L148.683 47.6047H137.936L99.5556 0.0396737H110.271ZM214.647 27.2565H218.276V41.1947C218.27 42.4756 217.992 43.5713 217.449 44.4925C216.9 45.4137 216.14 46.1168 215.164 46.6129C214.193 47.1034 213.055 47.3543 211.763 47.3543C210.581 47.3543 209.521 47.1416 208.578 46.7274C207.635 46.3131 206.886 45.6917 206.337 44.8741C205.782 44.0564 205.51 43.0371 205.51 41.8161H209.144C209.149 42.3503 209.272 42.8136 209.504 43.2006C209.737 43.5876 210.059 43.8819 210.47 44.0891C210.885 44.2962 211.363 44.3998 211.901 44.3998C212.484 44.3998 212.983 44.2799 213.388 44.0346C213.793 43.7947 214.104 43.435 214.32 42.9553C214.531 42.4811 214.642 41.8924 214.647 41.1947V27.2565ZM233.205 32.7075C233.117 31.8626 232.728 31.2031 232.051 30.7343C231.369 30.26 230.487 30.0257 229.405 30.0257C228.645 30.0257 227.99 30.1401 227.447 30.3636C226.903 30.5926 226.481 30.8978 226.192 31.2848C225.904 31.6718 225.76 32.1134 225.749 32.6094C225.749 33.0237 225.848 33.3834 226.043 33.6833C226.237 33.9885 226.497 34.2447 226.836 34.4519C227.169 34.6644 227.54 34.8388 227.946 34.9806C228.356 35.1223 228.767 35.2422 229.177 35.3404L231.069 35.8037C231.829 35.9781 232.567 36.2125 233.272 36.5123C233.976 36.8067 234.614 37.1828 235.174 37.6352C235.735 38.0876 236.179 38.6327 236.506 39.2705C236.833 39.9082 237 40.655 237 41.5163C237 42.6773 236.7 43.6967 236.095 44.5797C235.491 45.4573 234.62 46.1441 233.477 46.6402C232.339 47.1308 230.964 47.3815 229.344 47.3815C227.779 47.3815 226.414 47.1417 225.266 46.662C224.112 46.1878 223.213 45.49 222.564 44.5742C221.915 43.6585 221.566 42.541 221.516 41.2274H225.111C225.161 41.9141 225.383 42.4866 225.76 42.9499C226.143 43.4077 226.642 43.7457 227.252 43.9746C227.868 44.1981 228.556 44.3126 229.316 44.3126C230.11 44.3126 230.809 44.1927 231.413 43.9583C232.012 43.7239 232.484 43.3969 232.822 42.9717C233.167 42.5519 233.339 42.0559 233.344 41.489C233.339 40.9712 233.183 40.5405 232.883 40.2025C232.578 39.8646 232.157 39.5812 231.618 39.3522C231.075 39.1233 230.442 38.9162 229.721 38.7363L227.424 38.1585C225.765 37.7388 224.45 37.101 223.49 36.2452C222.526 35.3894 222.048 34.2556 222.048 32.8329C222.048 31.6664 222.37 30.6417 223.019 29.764C223.662 28.8865 224.545 28.2051 225.66 27.7199C226.781 27.2294 228.046 26.9895 229.454 26.9895C230.886 26.9895 232.14 27.2294 233.222 27.7199C234.303 28.2051 235.153 28.881 235.768 29.7422C236.384 30.6035 236.706 31.5901 236.723 32.7075H233.205Z" fill="black"/>
</g>
<defs>
<clipPath id="clip0_48_90">
<rect width="237" height="48" fill="white"/>
</clipPath>
</defs>
</svg>
