<svg width="260" height="48" viewBox="0 0 260 48" fill="none" xmlns="http://www.w3.org/2000/svg">
<g clip-path="url(#clip0_48_34)">
<path d="M46.7383 31.9156C47.606 29.4351 48.074 26.7727 48.074 24C48.074 10.7468 37.3165 0 24.0468 0C10.7738 0 0.0162506 10.7468 0.0162506 24C0.0162506 30.5584 2.64875 36.5032 6.91925 40.8344L31.2943 16.4903L37.3133 22.5L46.7383 31.9156ZM42.3475 39.5519L31.2943 28.5097L13.9815 45.7987C17.043 47.211 20.4523 48 24.0468 48C31.3755 48 37.9405 44.7208 42.3475 39.5519Z" fill="#10B981"/>
<path d="M62.8615 36.5V11.302H75.1887C76.4627 11.302 77.6262 11.4936 78.6857 11.8767C79.768 12.2598 80.691 12.802 81.4613 13.4968C82.2283 14.1689 82.8295 14.9838 83.2618 15.9449C83.694 16.9059 83.9118 17.9611 83.9118 19.1137C83.9118 20.6949 83.4535 22.1137 82.5402 23.3604C81.653 24.6072 80.4635 25.5325 78.975 26.1332L84.5618 36.5H78.7215L73.7815 26.8507H68.0875V36.5H62.8615ZM74.7207 15.802H68.0875V22.5682H74.7207C75.8972 22.5682 76.8332 22.2565 77.532 21.6332C78.2535 21.0098 78.6142 20.1916 78.6142 19.1851C78.6142 18.1754 78.2535 17.3604 77.532 16.7371C76.8332 16.1137 75.8972 15.802 74.7207 15.802ZM85.046 27.1397C85.046 25.7728 85.2963 24.5 85.8 23.3247C86.3298 22.1234 87.0382 21.091 87.9287 20.2273C88.842 19.341 89.9112 18.6429 91.1365 18.1397C92.3617 17.6364 93.6715 17.3832 95.0657 17.3832C96.46 17.3832 97.7697 17.6364 98.995 18.1397C100.22 18.6429 101.276 19.341 102.167 20.2273C103.08 21.091 103.789 22.1234 104.293 23.3247C104.822 24.5 105.086 25.7728 105.086 27.1397C105.086 28.5098 104.822 29.7923 104.293 30.9936C103.789 32.1689 103.08 33.1884 102.167 34.052C101.276 34.9156 100.22 35.6007 98.995 36.1039C97.7697 36.6072 96.46 36.8604 95.0657 36.8604C93.6715 36.8604 92.3617 36.6072 91.1365 36.1039C89.9112 35.6007 88.842 34.9156 87.9287 34.052C87.0382 33.1884 86.3298 32.1689 85.8 30.9936C85.2963 29.7923 85.046 28.5098 85.046 27.1397ZM95.0657 32.5747C96.5055 32.5747 97.7307 32.0487 98.7415 30.9936C99.7522 29.9351 100.256 28.6526 100.256 27.1397C100.256 25.6039 99.7522 24.3085 98.7415 23.2533C97.7307 22.1949 96.5055 21.6689 95.0657 21.6689C93.6227 21.6689 92.3975 22.1949 91.39 23.2533C90.3792 24.3085 89.8755 25.6039 89.8755 27.1397C89.8755 28.6526 90.3792 29.9351 91.39 30.9936C92.3975 32.0487 93.6227 32.5747 95.0657 32.5747ZM119.795 32.0358C120.539 31.7013 121.251 31.1721 121.924 30.4513L124.878 33.513C123.916 34.5682 122.762 35.3962 121.417 35.9968C120.071 36.5715 118.677 36.8604 117.237 36.8604C115.866 36.8604 114.569 36.6072 113.344 36.1039C112.141 35.6007 111.098 34.9156 110.207 34.052C109.343 33.1884 108.657 32.1689 108.154 30.9936C107.65 29.7923 107.396 28.5098 107.396 27.1397C107.396 25.7728 107.65 24.5 108.154 23.3247C108.657 22.1234 109.343 21.091 110.207 20.2273C111.098 19.341 112.141 18.6429 113.344 18.1397C114.569 17.6364 115.866 17.3832 117.237 17.3832C118.726 17.3832 120.156 17.6851 121.527 18.2858C122.896 18.8604 124.062 19.6754 125.021 20.7338L121.995 23.9351C121.323 23.1916 120.601 22.6299 119.831 22.2436C119.064 21.8604 118.235 21.6689 117.345 21.6689C115.928 21.6689 114.725 22.1949 113.74 23.2533C112.778 24.3085 112.297 25.6039 112.297 27.1397C112.297 28.6754 112.791 29.9611 113.776 30.9936C114.787 32.0228 116.012 32.539 117.452 32.539C118.293 32.539 119.073 32.3734 119.795 32.0358ZM127.445 36.5V11.302L132.382 10.2208V25.6656L140.494 17.7436H146.081L137.287 26.3475L146.621 36.5H140.312L132.382 27.9319V36.5H127.445ZM153.654 36.6786L146.338 17.7436H151.778L156.429 30.5228L161.766 17.7436H167.099L158.447 37.9773C157.485 40.2306 156.371 41.841 155.097 42.7987C153.823 43.7598 152.165 44.2403 150.121 44.2403C149.688 44.2403 149.269 44.2143 148.86 44.1689C148.476 44.1429 148.164 44.0942 147.924 44.0228V39.776C148.164 39.8247 148.414 39.8604 148.681 39.8832C148.944 39.9091 149.269 39.9189 149.653 39.9189C150.543 39.9189 151.287 39.7046 151.889 39.2728C152.513 38.841 153.007 38.2046 153.364 37.3637L153.654 36.6786ZM176.92 36.5V11.302H179.696V34.0163H194.727V36.5H176.92ZM199.501 15.0098C199.024 15.0098 198.601 14.828 198.24 14.4676C197.879 14.1072 197.701 13.6884 197.701 13.2078C197.701 12.7046 197.879 12.2858 198.24 11.9481C198.601 11.5877 199.024 11.4091 199.501 11.4091C200.008 11.4091 200.428 11.5877 200.766 11.9481C201.123 12.2858 201.305 12.7046 201.305 13.2078C201.305 13.6884 201.123 14.1072 200.766 14.4676C200.428 14.828 200.008 15.0098 199.501 15.0098ZM200.837 18.4643V36.5H198.169V18.4643H200.837ZM205.384 36.5V18.4643H208.052V20.5877C208.748 19.7728 209.58 19.1591 210.538 18.7533C211.5 18.3215 212.57 18.1039 213.746 18.1039C215.79 18.1039 217.461 18.7533 218.758 20.0487C220.054 21.3442 220.704 23.0228 220.704 25.0877V36.5H218.072V25.6267C218.072 24.0455 217.617 22.7858 216.703 21.8474C215.79 20.9124 214.565 20.4449 213.028 20.4449C211.946 20.4449 210.971 20.6851 210.106 21.1656C209.264 21.6429 208.582 22.328 208.052 23.2176V36.5H205.384ZM227.549 29.3377C227.549 30.9189 228.007 32.1786 228.92 33.1169C229.834 34.052 231.059 34.5195 232.596 34.5195C233.678 34.5195 234.64 34.2793 235.479 33.7987C236.343 33.2955 237.042 32.6007 237.572 31.7111V18.4643H240.237V36.5H237.572V34.4124C236.873 35.2273 236.044 35.841 235.082 36.2468C234.146 36.6559 233.09 36.8604 231.91 36.8604C229.843 36.8604 228.163 36.2111 226.866 34.9156C225.566 33.6202 224.92 31.9416 224.92 29.8767V18.4643H227.549V29.3377ZM242.684 36.5L249.782 27.2111L243.042 18.4643H246.214L251.332 25.2338L256.451 18.4643H259.516L252.847 27.1754L259.984 36.5H256.812L251.297 29.1559L245.71 36.5H242.684Z" fill="black"/>
</g>
<defs>
<clipPath id="clip0_48_34">
<rect width="260" height="48" fill="white"/>
</clipPath>
</defs>
</svg>
