<svg width="340" height="48" viewBox="0 0 340 48" fill="none" xmlns="http://www.w3.org/2000/svg">
<g clip-path="url(#clip0_48_12)">
<mask id="mask0_48_12" style="mask-type:luminance" maskUnits="userSpaceOnUse" x="0" y="0" width="340" height="48">
<path d="M340 0H0V48H340V0Z" fill="white"/>
</mask>
<g mask="url(#mask0_48_12)">
<path fill-rule="evenodd" clip-rule="evenodd" d="M0 6.84439L19.5462 4.15893V23.0623H0M21.9004 3.78578L47.7976 0V22.9045H21.9004M0 25.0637H19.5462V44.0213L0 41.2816M21.9004 25.3156H47.7976V48L21.9004 44.329" fill="#00188F"/>
<path fill-rule="evenodd" clip-rule="evenodd" d="M98.7816 10.0465L90.8456 38.2724H86.9852L81.2049 17.6436C80.9563 16.7649 80.8066 15.8065 80.754 14.77H80.6759C80.5978 15.7411 80.4274 16.6868 80.1661 17.6053L74.3475 38.2724H70.5253L62.2962 10.0465H65.9208L71.8971 31.6975C72.1456 32.6033 72.3034 33.549 72.3687 34.5329H72.4659C72.5312 33.8376 72.7336 32.892 73.0729 31.6975L79.285 10.0465H82.4397L88.3968 31.8554C88.6055 32.6033 88.7617 33.4836 88.8668 34.493H88.9449C88.9975 33.8105 89.1743 32.9047 89.4738 31.7773L95.2159 10.0465H98.7816Z" fill="#00188F"/>
<path fill-rule="evenodd" clip-rule="evenodd" d="M103.702 12.968C103.134 12.968 102.65 12.7718 102.25 12.3779C101.849 11.9824 101.649 11.4833 101.649 10.8789C101.649 10.2745 101.849 9.7754 102.25 9.38151C102.65 8.97486 103.134 8.77075 103.702 8.77075C104.282 8.77075 104.772 8.97486 105.172 9.38151C105.585 9.7754 105.792 10.2745 105.792 10.8789C105.792 11.4578 105.585 11.9506 105.172 12.3572C104.772 12.7654 104.282 12.968 103.702 12.968ZM105.25 38.2724H102.075V18.0917H105.25V38.2724Z" fill="#00188F"/>
<path fill-rule="evenodd" clip-rule="evenodd" d="M127.938 38.2725H124.74V26.8083C124.74 22.5425 123.195 20.4104 120.101 20.4104C118.503 20.4104 117.177 21.018 116.124 22.2347C115.085 23.4387 114.566 24.9632 114.566 26.8083V38.2725H111.368V18.1715H114.566V21.5092H114.644C116.151 18.9704 118.334 17.701 121.194 17.701C123.377 17.701 125.046 18.4139 126.203 19.8411C127.36 21.254 127.938 23.3016 127.938 25.9838V38.2725Z" fill="#00188F"/>
<path fill-rule="evenodd" clip-rule="evenodd" d="M150.722 38.2788H147.511V34.855H147.433C145.945 37.4527 143.648 38.7508 140.541 38.7508C138.022 38.7508 136.006 37.853 134.491 36.0558C132.99 34.2458 132.24 31.7852 132.24 28.6772C132.24 25.3459 133.075 22.6764 134.746 20.6703C136.416 18.6625 138.642 17.6595 141.422 17.6595C144.177 17.6595 146.179 18.7487 147.433 20.9254H147.511V8.45178H150.722V38.2788ZM147.511 29.1699V26.199C147.511 24.5725 146.976 23.1946 145.905 22.0672C144.835 20.9382 143.477 20.3752 141.833 20.3752C139.875 20.3752 138.336 21.096 137.212 22.5392C136.091 23.9824 135.528 25.9758 135.528 28.5193C135.528 30.8411 136.064 32.6782 137.134 34.0289C138.218 35.3669 139.666 36.035 141.481 36.035C143.268 36.035 144.718 35.386 145.827 34.0879C146.95 32.7899 147.511 31.1505 147.511 29.1699Z" fill="#00188F"/>
<path fill-rule="evenodd" clip-rule="evenodd" d="M165.182 38.7509C162.191 38.7509 159.802 37.8148 158.009 35.9426C156.231 34.0577 155.342 31.5636 155.342 28.462C155.342 25.0844 156.271 22.4468 158.129 20.5476C159.985 18.6499 162.494 17.701 165.655 17.701C168.671 17.701 171.023 18.6244 172.71 20.4694C174.409 22.3161 175.258 24.8755 175.258 28.1478C175.258 31.3547 174.343 33.927 172.513 35.8645C170.695 37.7893 168.251 38.7509 165.182 38.7509ZM165.419 20.4104C163.337 20.4104 161.691 21.1185 160.479 22.5314C159.268 23.9315 158.661 25.869 158.661 28.344C158.661 30.7264 159.274 32.605 160.499 33.9796C161.723 35.3542 163.364 36.0415 165.419 36.0415C167.513 36.0415 169.121 35.367 170.241 34.0179C171.372 32.6703 171.939 30.7519 171.939 28.2658C171.939 25.7526 171.372 23.8151 170.241 22.4532C169.121 21.0914 167.513 20.4104 165.419 20.4104Z" fill="#00188F"/>
<path fill-rule="evenodd" clip-rule="evenodd" d="M205.211 18.1794L199.164 38.2725H195.817L191.662 23.89C191.504 23.3399 191.399 22.7179 191.346 22.0258H191.268C191.228 22.4963 191.091 23.1038 190.854 23.8502L186.345 38.2725H183.116L177.01 18.1794H180.398L184.572 33.2891C184.704 33.7468 184.795 34.3479 184.848 35.0943H185.005C185.045 34.5186 185.163 33.903 185.361 33.2492L190.008 18.1794H192.962L197.136 33.3273C197.269 33.8121 197.366 34.4133 197.433 35.1325H197.589C197.616 34.6222 197.727 34.021 197.925 33.3273L202.021 18.1794H205.211Z" fill="#00188F"/>
<path fill-rule="evenodd" clip-rule="evenodd" d="M207.123 37.5533V34.0976C208.883 35.3925 210.822 36.0415 212.938 36.0415C215.776 36.0415 217.195 35.0991 217.195 33.2141C217.195 32.6767 217.069 32.2254 216.821 31.8587C216.584 31.4791 216.255 31.1458 215.835 30.8572C215.427 30.5686 214.941 30.3134 214.377 30.0917C213.824 29.8557 213.227 29.6133 212.583 29.3646C211.689 29.0121 210.9 28.6581 210.217 28.3041C209.548 27.9373 208.982 27.5323 208.523 27.0874C208.076 26.6297 207.735 26.1114 207.497 25.5357C207.274 24.9601 207.163 24.2855 207.163 23.5137C207.163 22.5712 207.379 21.7388 207.813 21.0196C208.246 20.286 208.824 19.6785 209.548 19.1937C210.269 18.6961 211.092 18.323 212.011 18.0742C212.945 17.8254 213.904 17.701 214.888 17.701C216.636 17.701 218.201 18.0025 219.58 18.6036V21.8632C218.095 20.8952 216.386 20.4104 214.455 20.4104C213.851 20.4104 213.306 20.4822 212.819 20.6273C212.333 20.7581 211.912 20.9478 211.558 21.1966C211.216 21.4454 210.947 21.7468 210.749 22.0992C210.566 22.4404 210.473 22.82 210.473 23.2378C210.473 23.7624 210.566 24.201 210.749 24.5534C210.947 24.9074 211.229 25.2216 211.597 25.4959C211.965 25.7717 212.411 26.0205 212.938 26.2422C213.462 26.4654 214.061 26.7078 214.731 26.9694C215.624 27.309 216.426 27.663 217.136 28.0298C217.845 28.3822 218.449 28.7889 218.949 29.2466C219.448 29.6915 219.829 30.2098 220.092 30.7982C220.367 31.3866 220.506 32.0883 220.506 32.9C220.506 33.8935 220.283 34.7578 219.835 35.4914C219.402 36.2249 218.817 36.8325 218.083 37.3173C217.347 37.802 216.497 38.1624 215.54 38.3969C214.579 38.6329 213.574 38.7509 212.524 38.7509C210.448 38.7509 208.648 38.3522 207.123 37.5533Z" fill="#00188F"/>
<path fill-rule="evenodd" clip-rule="evenodd" d="M234.527 37.1354V33.238C234.971 33.6319 235.502 33.9859 236.115 34.3001C236.745 34.6158 237.398 34.8853 238.078 35.1086C238.771 35.3175 239.464 35.4817 240.157 35.5997C240.85 35.7177 241.491 35.7767 242.08 35.7767C244.107 35.7767 245.617 35.4036 246.612 34.6557C247.618 33.8934 248.122 32.8043 248.122 31.3866C248.122 30.6243 247.951 29.9625 247.612 29.398C247.284 28.8335 246.827 28.3216 246.239 27.8607C245.649 27.3887 244.95 26.9422 244.139 26.5228C243.341 26.089 242.479 25.6362 241.55 25.1641C240.568 24.665 239.654 24.1595 238.803 23.6476C237.954 23.1357 237.215 22.5712 236.587 21.954C235.959 21.3369 235.462 20.6416 235.096 19.8666C234.742 19.0788 234.567 18.1603 234.567 17.1094C234.567 15.8241 234.847 14.7078 235.409 13.7621C235.972 12.8037 236.711 12.016 237.627 11.3988C238.542 10.7817 239.582 10.3224 240.745 10.021C241.923 9.7196 243.119 9.56812 244.336 9.56812C247.109 9.56812 249.129 9.90301 250.397 10.5728V14.2948C248.737 13.1386 246.604 12.5613 244.002 12.5613C243.283 12.5613 242.563 12.6395 241.844 12.7974C241.124 12.9425 240.484 13.1849 239.921 13.5261C239.359 13.8674 238.902 14.3075 238.548 14.8449C238.196 15.3839 238.019 16.0393 238.019 16.8144C238.019 17.5367 238.15 18.1603 238.411 18.6849C238.687 19.2096 239.085 19.6896 239.608 20.1233C240.132 20.5555 240.764 20.9765 241.512 21.3831C242.27 21.7898 243.138 22.2363 244.12 22.7227C245.127 23.2202 246.081 23.7465 246.984 24.2966C247.886 24.8484 248.678 25.4591 249.357 26.1289C250.037 26.7987 250.574 27.5402 250.966 28.3535C251.372 29.1684 251.575 30.0997 251.575 31.1506C251.575 32.5411 251.299 33.7228 250.751 34.694C250.214 35.6524 249.481 36.4338 248.554 37.0382C247.638 37.6409 246.578 38.0747 245.375 38.3378C244.172 38.6137 242.904 38.7508 241.569 38.7508C241.124 38.7508 240.576 38.711 239.921 38.6328C239.268 38.5675 238.601 38.4622 237.92 38.3171C237.24 38.1863 236.593 38.0221 235.978 37.8259C235.378 37.6154 234.893 37.3858 234.527 37.1354Z" fill="#00188F"/>
<path fill-rule="evenodd" clip-rule="evenodd" d="M272.446 29.0313H258.257C258.309 31.2702 258.911 32.9973 260.062 34.2156C261.214 35.4324 262.797 36.0415 264.811 36.0415C267.075 36.0415 269.156 35.2952 271.052 33.8026V36.8261C269.287 38.1098 266.951 38.7509 264.047 38.7509C261.207 38.7509 258.977 37.8403 257.353 36.0208C255.731 34.1885 254.92 31.6163 254.92 28.3041C254.92 25.1753 255.803 22.6302 257.57 20.6656C259.35 18.6897 261.553 17.701 264.183 17.701C266.814 17.701 268.849 18.5526 270.287 20.2541C271.726 21.9557 272.446 24.319 272.446 27.3425V29.0313ZM269.15 26.3012C269.135 24.4434 268.684 22.997 267.795 21.962C266.918 20.9271 265.696 20.4104 264.125 20.4104C262.608 20.4104 261.319 20.9542 260.259 22.0402C259.198 23.1278 258.545 24.547 258.296 26.3012H269.15Z" fill="#00188F"/>
<path fill-rule="evenodd" clip-rule="evenodd" d="M287.263 21.4645C286.699 21.0339 285.885 20.8186 284.822 20.8186C283.443 20.8186 282.288 21.4645 281.356 22.7577C280.436 24.051 279.977 25.8132 279.977 28.0473V38.2724H276.748V18.2129H279.977V22.3463H280.057C280.516 20.9366 281.217 19.8395 282.163 19.0549C283.108 18.2591 284.164 17.8605 285.334 17.8605C286.174 17.8605 286.817 17.9514 287.263 18.1348V21.4645Z" fill="#00188F"/>
<path fill-rule="evenodd" clip-rule="evenodd" d="M306.064 18.1794L298.048 38.2725H294.885L287.263 18.1794H290.799L295.907 32.7788C296.288 33.8504 296.523 34.7865 296.614 35.5838H296.692C296.823 34.5776 297.033 33.667 297.322 32.8569L302.665 18.1794H306.064Z" fill="#00188F"/>
<path fill-rule="evenodd" clip-rule="evenodd" d="M325.183 29.0313H310.993C311.046 31.2702 311.648 32.9973 312.798 34.2156C313.95 35.4324 315.534 36.0415 317.548 36.0415C319.812 36.0415 321.893 35.2952 323.79 33.8026V36.8261C322.023 38.1098 319.688 38.7509 316.783 38.7509C313.944 38.7509 311.713 37.8403 310.091 36.0208C308.468 34.1885 307.657 31.6163 307.657 28.3041C307.657 25.1753 308.541 22.6302 310.307 20.6656C312.086 18.6897 314.291 17.701 316.92 17.701C319.551 17.701 321.585 18.5526 323.024 20.2541C324.464 21.9557 325.183 24.319 325.183 27.3425V29.0313ZM321.886 26.3012C321.874 24.4434 321.421 22.997 320.532 21.962C319.654 20.9271 318.432 20.4104 316.861 20.4104C315.344 20.4104 314.055 20.9542 312.996 22.0402C311.936 23.1278 311.282 24.547 311.033 26.3012H321.886Z" fill="#00188F"/>
<path fill-rule="evenodd" clip-rule="evenodd" d="M340 21.4645C339.436 21.0339 338.622 20.8186 337.558 20.8186C336.179 20.8186 335.024 21.4645 334.092 22.7577C333.173 24.051 332.714 25.8132 332.714 28.0473V38.2724H329.485V18.2129H332.714V22.3463H332.792C333.253 20.9366 333.955 19.8395 334.9 19.0549C335.845 18.2591 336.901 17.8605 338.071 17.8605C338.91 17.8605 339.554 17.9514 340 18.1348V21.4645Z" fill="#00188F"/>
</g>
</g>
<defs>
<clipPath id="clip0_48_12">
<rect width="340" height="48" fill="white"/>
</clipPath>
</defs>
</svg>
