<svg width="128" height="48" viewBox="0 0 128 48" fill="none" xmlns="http://www.w3.org/2000/svg">
<g clip-path="url(#clip0_48_57)">
<path d="M21.4272 0.227328C20.6739 0.671675 19.4213 1.92919 17.9323 3.75464L19.3016 6.34323C20.2658 4.96801 21.2438 3.72717 22.2296 2.66878C21.9098 3.01897 20.9407 4.1519 19.4801 6.3962C20.8877 6.32655 23.0486 6.03817 24.8123 5.73801C25.34 2.79532 24.2993 1.45149 24.2993 1.45149C24.2993 1.45149 22.977 -0.686869 21.4272 0.227328Z" fill="url(#paint0_linear_48_57)"/>
<path d="M16.8189 21.9729C16.6434 22.0033 16.4658 22.0367 16.2794 22.0671C16.2794 22.0671 16.2775 22.0671 16.2775 22.07L16.5551 22.0288C16.6404 22.0092 16.7297 21.9925 16.8189 21.9729Z" fill="#BD202E"/>
<path opacity="0.35" d="M16.8189 21.9729C16.6434 22.0033 16.4658 22.0367 16.2794 22.0671C16.2794 22.0671 16.2775 22.0671 16.2775 22.07L16.5551 22.0288C16.6404 22.0092 16.7297 21.9925 16.8189 21.9729Z" fill="#BD202E"/>
<path d="M17.277 19.7089C17.2741 19.7089 17.2741 19.7089 17.2741 19.7119C17.303 19.7087 17.3319 19.7041 17.3604 19.6982C17.4752 19.6828 17.5891 19.6615 17.7017 19.6344L17.277 19.7089Z" fill="#BD202E"/>
<path opacity="0.35" d="M17.277 19.7089C17.2741 19.7089 17.2741 19.7089 17.2741 19.7119C17.303 19.7087 17.3319 19.7041 17.3604 19.6982C17.4752 19.6828 17.5891 19.6615 17.7017 19.6344L17.277 19.7089Z" fill="#BD202E"/>
<path d="M15.2573 13.0349C15.6668 12.2681 16.0883 11.5078 16.5217 10.7543C16.9631 9.98235 17.4134 9.23785 17.8656 8.51591C17.8911 8.47373 17.9215 8.42959 17.946 8.38839C18.3933 7.6792 18.8465 6.99552 19.2996 6.34616L17.9293 3.75659C17.8273 3.88215 17.7233 4.00966 17.6184 4.14306C17.2004 4.66477 16.7913 5.19355 16.3913 5.72918C15.9155 6.36284 15.43 7.04064 14.9327 7.75179C14.0366 9.03376 13.1779 10.3415 12.3578 11.6734L12.3156 11.746L14.1019 15.2733C14.4752 14.5212 14.8605 13.7749 15.2573 13.0349Z" fill="url(#paint1_linear_48_57)"/>
<path d="M7.12473 32.9001C6.88931 33.5475 6.64997 34.2116 6.41358 34.8864C6.41063 34.8943 6.40769 34.906 6.40279 34.9139C6.36944 35.009 6.33314 35.1061 6.30274 35.2003C6.14187 35.6554 6.00258 36.0664 5.68281 36.9973C6.20759 37.2366 6.63035 37.8703 7.03056 38.5863C6.99341 37.8295 6.65758 37.1184 6.09675 36.6089C8.68828 36.7246 10.9218 36.0694 12.0773 34.1753C12.1803 34.0056 12.2744 33.831 12.3608 33.6397C11.836 34.3067 11.1837 34.5863 9.95756 34.5196C11.7634 33.7113 12.6658 32.9364 13.4692 31.6534C13.6575 31.3473 13.8439 31.0168 14.0332 30.6479C12.4549 32.2664 10.6295 32.7275 8.70495 32.3783L7.26107 32.5362C7.21399 32.6588 7.17279 32.7785 7.12473 32.9001Z" fill="url(#paint2_linear_48_57)"/>
<path d="M7.79958 29.6699C8.11053 28.8646 8.43324 28.0475 8.76086 27.2255C9.07769 26.4369 9.39943 25.6424 9.73293 24.8478C10.0664 24.0533 10.4048 23.2509 10.7491 22.4505C11.0993 21.6364 11.4603 20.8262 11.8301 20.0179C12.193 19.2175 12.5609 18.423 12.9356 17.6402C13.069 17.3558 13.2073 17.0733 13.3436 16.7927C13.579 16.3072 13.8194 15.8236 14.0597 15.3459C14.0744 15.3204 14.0852 15.2929 14.0989 15.2674L12.3137 11.7401C12.2852 11.7872 12.2548 11.8382 12.2254 11.8823C10.9935 13.8846 9.85256 15.9413 8.80599 18.0463C8.74125 18.1738 8.68043 18.3033 8.61667 18.4318C8.24535 19.1963 7.89213 19.9695 7.5573 20.7506C7.0153 22.0161 6.53058 23.3053 6.10459 24.6144C5.98002 25.0117 5.86329 25.4119 5.74656 25.8091C5.48207 26.7315 5.25335 27.6637 5.06092 28.6037L6.85596 32.1448C7.09138 31.5111 7.3366 30.8666 7.58575 30.2173C7.66128 30.0309 7.727 29.8475 7.79958 29.6699Z" fill="url(#paint3_linear_48_57)"/>
<path d="M5.0413 28.7224C4.81566 29.8397 4.65972 30.9699 4.57439 32.1065L4.56654 32.2223C4.00547 31.3257 2.50862 30.4508 2.51058 30.4586C3.58565 32.0143 4.39979 33.5583 4.51946 35.0747C3.94466 35.1925 3.15798 35.0227 2.24966 34.6892C3.19721 35.5622 3.90738 35.8006 4.1889 35.8663C3.3159 35.9222 2.41151 36.5196 1.49732 37.2082C2.8333 36.6638 3.91327 36.447 4.68523 36.6226C3.45911 40.095 2.23005 43.9273 1 48C1.37765 47.8882 1.60227 47.6332 1.72783 47.2918C1.94755 46.5561 3.40026 41.7164 5.68084 35.3641L5.87702 34.8197C5.89468 34.7667 5.91332 34.7167 5.93293 34.6696C6.17227 34.0026 6.42436 33.3229 6.68038 32.6284C6.73923 32.4695 6.79711 32.3115 6.85792 32.1536L6.86086 32.1448L5.06386 28.6038L5.0413 28.7224Z" fill="url(#paint4_linear_48_57)"/>
<path d="M14.3775 15.5627C14.3245 15.6677 14.2745 15.7736 14.2215 15.8785C14.0656 16.1983 13.9106 16.523 13.7497 16.8565C13.4827 17.4143 13.2204 17.9744 12.963 18.5368C12.6888 19.135 12.4184 19.735 12.1518 20.3367C11.8164 21.095 11.4691 21.8865 11.1219 22.7095C10.7913 23.4923 10.45 24.3005 10.1116 25.1392C9.463 26.7273 8.83485 28.3237 8.22725 29.9279L8.18606 30.0417C7.8859 30.8333 7.5828 31.6475 7.28069 32.4812C7.2748 32.5008 7.26597 32.5165 7.26107 32.5401L8.70495 32.3812C8.67749 32.3753 8.6461 32.3723 8.61863 32.3674C10.344 32.1526 12.6403 30.8618 14.1215 29.2698C14.8052 28.537 15.4241 27.6709 15.9969 26.6557C16.4217 25.9033 16.8238 25.0647 17.2074 24.1397C17.5409 23.3314 17.8607 22.4535 18.1687 21.5069C17.7714 21.7149 17.3182 21.8699 16.8189 21.9758C16.6377 22.0139 16.4551 22.0453 16.2716 22.07C16.2716 22.07 16.2745 22.07 16.2745 22.068C17.8852 21.4481 18.8994 20.2533 19.6351 18.7898C19.2133 19.0782 18.5237 19.4569 17.6988 19.6373C17.5572 19.6681 17.4145 19.6939 17.2711 19.7148H17.277C17.789 19.5087 18.2726 19.2381 18.716 18.9095C18.8043 18.8428 18.8906 18.7761 18.9691 18.7035C19.0936 18.5956 19.2104 18.4818 19.3271 18.3651C19.5753 18.1026 19.7968 17.8161 19.9882 17.5098C20.0294 17.4401 20.0736 17.3725 20.1128 17.3008C20.1687 17.1979 20.2187 17.0949 20.2688 16.9987C20.5461 16.4455 20.7917 15.877 21.0044 15.2959C21.0255 15.237 21.0458 15.1778 21.0652 15.1183C21.1241 14.9487 21.1682 14.7986 21.2045 14.6652C21.2491 14.5098 21.2845 14.3519 21.3105 14.1924C21.25 14.2387 21.1868 14.2813 21.1212 14.3199C20.6346 14.6122 19.8018 14.8731 19.1299 14.9987C19.1211 15.0016 19.1103 15.0016 19.0995 15.0036C19.0299 15.0154 18.9661 15.0261 18.8965 15.035L18.9298 15.0183L14.3942 15.5146C14.3916 15.5316 14.386 15.5479 14.3775 15.5627Z" fill="url(#paint5_linear_48_57)"/>
<path d="M19.4821 6.39525C19.003 7.13463 18.5383 7.88319 18.0882 8.64052C17.6433 9.3929 17.209 10.1515 16.7856 10.9162C15.9526 12.4293 15.1568 13.9625 14.3991 15.5147L18.9357 15.0173C20.257 14.4092 20.8465 13.8618 21.4184 13.0654C21.5684 12.8456 21.7244 12.6181 21.8745 12.3787C22.3545 11.6254 22.7984 10.8496 23.2046 10.054C23.5989 9.28498 23.9461 8.5238 24.2129 7.83521C24.3826 7.39871 24.518 6.9936 24.6132 6.63459C24.6955 6.3207 24.7603 6.02153 24.8093 5.73511C23.0516 6.0382 20.8877 6.32659 19.4831 6.39623L19.4821 6.39525Z" fill="url(#paint6_linear_48_57)"/>
<path d="M17.2741 19.712C17.3031 19.7088 17.3319 19.7042 17.3604 19.6982C17.3329 19.7012 17.3045 19.709 17.2741 19.712Z" fill="#BD202E"/>
<path opacity="0.35" d="M17.2741 19.712C17.3031 19.7088 17.3319 19.7042 17.3604 19.6982C17.3329 19.7012 17.3045 19.709 17.2741 19.712Z" fill="#BD202E"/>
<path d="M17.2741 19.712C17.3031 19.7088 17.3319 19.7042 17.3604 19.6982C17.3329 19.7012 17.3045 19.709 17.2741 19.712Z" fill="url(#paint7_linear_48_57)"/>
<path d="M82.2546 33.7886C81.7521 33.681 81.2541 33.5534 80.7617 33.4061C80.3762 33.257 79.052 32.5782 78.897 32.4507C78.6981 32.2858 78.4936 32.1278 78.284 31.9769C77.9093 31.6974 77.1049 30.893 76.8254 30.5173C76.7305 30.3894 76.6337 30.2628 76.535 30.1377C76.4958 30.0887 76.4271 30.0073 76.3859 29.9553C76.2976 29.8474 75.5522 28.5869 75.5522 28.5457C75.5522 28.531 75.4737 28.3456 75.3795 28.1338C75.2844 27.9219 75.15 27.5845 75.0804 27.3844C75.0215 27.2128 74.9584 27.0427 74.891 26.8743C74.8135 26.6958 74.6036 25.7041 74.5281 25.1626C74.4467 24.5898 74.4496 23.0174 74.531 22.5024C74.7468 21.1488 74.9185 20.5691 75.4139 19.5107C75.4894 19.3479 75.5512 19.1762 75.5512 19.1281C75.5512 19.0811 75.5845 19.0418 75.6248 19.0418C75.664 19.0418 75.6973 18.9996 75.6973 18.9477C75.6973 18.8957 75.8994 18.5474 76.1476 18.1727C76.5488 17.5646 77.462 16.5543 78.0652 16.053C78.6891 15.5341 79.9221 14.8593 80.6587 14.6327C80.8755 14.566 81.1345 14.4826 81.2345 14.4483C81.6053 14.3208 82.3164 14.2276 83.2385 14.1864C84.4273 14.1334 85.674 14.2884 86.5539 14.5984C87.2111 14.8308 87.8134 15.1084 87.8536 15.1987C87.8663 15.2281 87.9095 15.2536 87.9478 15.2536C88.1018 15.2536 88.9287 15.8804 89.426 16.3718C90.0008 16.9427 90.3775 17.441 90.6747 18.0295C90.861 18.3984 90.863 18.417 90.7335 18.5063C90.6621 18.5555 90.5915 18.6059 90.5216 18.6573C90.4351 18.7167 90.3461 18.7723 90.2548 18.8241C90.1509 18.8829 89.9145 19.0261 89.7291 19.1409C89.3534 19.3734 89.2092 19.3567 89.0993 19.0654C88.7904 18.2532 87.373 16.9192 86.4078 16.5337C85.3454 16.108 84.701 15.9814 83.6073 15.9824C82.4498 15.9834 81.7044 16.1256 80.7784 16.5229C80.4616 16.6582 79.7867 17.0624 79.6455 17.1997C79.5915 17.2517 79.5258 17.2939 79.4983 17.2939C79.4218 17.2939 78.6116 18.0933 78.2545 18.521C77.869 18.9849 77.1981 20.1767 77.0402 20.6819C76.9873 20.8542 76.9277 21.0243 76.8617 21.1919C76.5517 21.8962 76.3702 23.605 76.483 24.7428C76.5595 25.5226 76.7214 26.3387 76.8626 26.6556C76.898 26.736 76.949 26.8841 76.9754 26.9842C77.0932 27.4256 77.7788 28.7046 78.1388 29.1519C78.4968 29.5973 79.1521 30.2859 79.4502 30.5301C79.7906 30.8097 80.8961 31.5012 81.004 31.5012C81.0305 31.5012 81.1374 31.5463 81.2404 31.6003C81.3444 31.6542 81.721 31.7768 82.0791 31.873C82.6254 32.0201 82.8854 32.0466 83.7123 32.0397C85.0953 32.026 85.9742 31.7876 87.1366 31.1078C87.8987 30.6615 88.9512 29.6326 89.323 28.9695C89.4623 28.7203 89.6104 28.5153 89.6506 28.5144C89.8046 28.5124 91.2171 29.2804 91.2171 29.3677C91.2171 29.4688 90.7924 30.279 90.709 30.3359C90.6528 30.3933 90.6064 30.4596 90.5717 30.5321C90.3981 30.8616 89.6006 31.6415 88.8492 32.2163C88.45 32.5203 87.3945 33.0569 86.6628 33.3266C85.6917 33.6847 85.1012 33.7798 83.7495 33.8004C83.0276 33.8122 82.3547 33.8073 82.2546 33.7886ZM24.1109 33.6866C24.1109 33.6454 24.1423 33.5552 24.1816 33.4855C24.2208 33.4169 24.3209 33.1952 24.4042 32.9951C24.4876 32.795 24.5847 32.5655 24.62 32.485C24.6553 32.4046 24.8849 31.8641 25.1301 31.2824C25.3753 30.7018 25.6048 30.1613 25.6411 30.0808C25.6774 30.0004 25.7922 29.7218 25.8962 29.4609C26.0001 29.201 26.1149 28.9214 26.1512 28.842L26.3709 28.3319C26.4563 28.1318 26.573 27.864 26.6299 27.7375C26.6878 27.6119 26.7339 27.4874 26.7339 27.4609C26.7339 27.4197 26.8741 27.0832 27.0997 26.583C27.135 26.5035 27.2498 26.224 27.3538 25.964C27.4578 25.7031 27.5725 25.4245 27.6088 25.3441C27.6451 25.2646 27.7599 24.9861 27.8639 24.7261C27.9668 24.4652 28.0816 24.1866 28.1179 24.1062C28.1542 24.0258 28.2523 23.7962 28.3376 23.5961C28.5466 23.1115 28.7526 22.6256 28.9556 22.1385C29.141 21.6971 29.3215 21.2714 29.3578 21.1919C29.3931 21.1115 29.5569 20.7182 29.7207 20.317C29.8855 19.9168 30.0493 19.5225 30.0856 19.443C30.1209 19.3626 30.2651 19.0183 30.4054 18.6779C31.1901 16.7691 31.3706 16.3375 31.5452 15.9451C31.5805 15.8657 31.6952 15.5861 31.8002 15.3262C31.9042 15.0653 32.0533 14.7131 32.1308 14.5424L32.273 14.2335H33.8562L34.019 14.616C34.2211 15.0917 34.4437 15.6077 34.5291 15.8C34.7772 16.3561 34.8939 16.6357 34.8939 16.6739C34.8939 16.7151 35.0332 17.0447 35.3 17.6323C35.3569 17.7588 35.404 17.8834 35.404 17.9099C35.404 17.9511 35.5168 18.2218 35.7679 18.7868C36.0161 19.3439 36.1328 19.6225 36.1328 19.6617C36.1328 19.6853 36.2005 19.8599 36.2839 20.0482C36.3663 20.2356 36.483 20.5043 36.5428 20.6446C36.6037 20.7849 36.6811 20.9654 36.7174 21.0458C36.7527 21.1262 36.8665 21.4048 36.9705 21.6647C37.0745 21.9257 37.1883 22.2042 37.2246 22.2847C37.2599 22.3641 37.4894 22.9056 37.7346 23.4863C37.9808 24.0679 38.2113 24.6084 38.2467 24.6888C38.283 24.7693 38.3644 24.9655 38.4301 25.1263C39.1 26.7713 39.3668 27.4187 39.4492 27.6031C39.5032 27.7237 39.6817 28.1495 39.8475 28.5506C40.0364 29.0143 40.231 29.4757 40.4311 29.9347C40.5155 30.1348 40.6145 30.3653 40.6508 30.4448C40.6871 30.5252 40.8009 30.8038 40.9049 31.0647C41.0089 31.3246 41.1236 31.6042 41.1599 31.6827C41.513 32.4654 41.9613 33.5689 41.9613 33.6543C41.9613 33.7425 41.7828 33.7602 40.9098 33.7602C39.8828 33.7602 39.8573 33.7563 39.8082 33.5964C39.7631 33.4492 39.5944 33.0383 39.411 32.6312C39.323 32.4256 39.2376 32.219 39.155 32.0113C39.0041 31.632 38.8462 31.2556 38.6812 30.8822C38.594 30.6766 38.5093 30.47 38.4271 30.2623C38.3241 30.0024 38.2094 29.7228 38.1731 29.6443C37.9524 29.1529 37.8082 28.8076 37.8082 28.7694C37.8082 28.7449 37.7474 28.5869 37.6728 28.4192C37.5934 28.2388 37.5149 28.058 37.4374 27.8768L37.3354 27.6394H28.7202L28.573 27.9856C28.4926 28.1759 28.3376 28.5614 28.2268 28.842C28.1179 29.1225 27.9668 29.4894 27.8913 29.6581C27.8367 29.7707 27.7911 29.8875 27.755 30.0073C27.755 30.0465 27.6118 30.3918 27.3901 30.8822C27.3538 30.9627 27.24 31.2412 27.135 31.5012C27.0321 31.7621 26.9163 32.0407 26.88 32.1211C26.8418 32.2006 26.6936 32.5615 26.5485 32.9225L26.2473 33.669C26.1993 33.7847 24.1109 33.8014 24.1109 33.6866ZM36.8626 26.0327C36.8626 25.964 36.7547 25.7011 36.4565 25.042C36.4117 24.9524 36.3766 24.8584 36.3516 24.7614C36.3516 24.734 36.3045 24.6074 36.2456 24.4809C36.0692 24.067 35.8992 23.6504 35.7356 23.2312C35.582 22.841 35.4241 22.4526 35.2618 22.0659C35.1225 21.728 34.9884 21.3879 34.8596 21.0458C34.7303 20.7042 34.5968 20.3641 34.4594 20.0257C34.4008 19.8926 34.3429 19.7592 34.2858 19.6255C34.2001 19.4256 34.1135 19.2261 34.0259 19.0271C33.9638 18.8983 33.9129 18.7644 33.8738 18.6269C33.8541 18.5427 33.8223 18.4618 33.7796 18.3866C33.6807 18.1718 33.5911 17.9528 33.5109 17.7304C33.4303 17.5082 33.3403 17.2896 33.2411 17.0751C33.1943 16.99 33.1624 16.8974 33.147 16.8015C33.145 16.6484 33.0136 16.7004 32.9606 16.874C32.9185 17.0039 32.8701 17.1315 32.8154 17.2566C32.6809 17.5714 32.5488 17.8873 32.4191 18.2041L31.9061 19.443L30.5309 22.7584C29.8914 24.3004 29.3156 25.6864 29.2518 25.8365L29.1371 26.1092H32.9998C35.66 26.1092 36.8626 26.0856 36.8626 26.0327ZM44.0026 23.9963V14.2335H48.0645C52.3068 14.2354 53.0749 14.2747 53.7556 14.5277C54.2363 14.7072 54.9798 15.0761 55.1161 15.2026C55.1681 15.2516 55.3202 15.3713 55.4536 15.4714C56.3933 16.1698 57.2918 17.5656 57.6341 18.8604C57.9656 20.1139 57.8303 21.8207 57.3045 23.0096C56.5492 24.7173 55.279 25.8993 53.6752 26.3858C53.3525 26.4829 52.7139 26.5055 49.631 26.529L45.9693 26.5565V33.7612H44.0026V23.9963ZM52.6492 24.7193C53.993 24.5329 55.0828 23.5098 55.6272 21.9198C55.8136 21.3734 55.8567 19.8638 55.7027 19.2576C55.4918 18.4337 55.1073 17.749 54.5354 17.184C54.251 16.9035 53.9214 16.6249 53.8017 16.5651C53.7123 16.5238 53.6269 16.4742 53.5467 16.4169C53.4311 16.3465 53.3097 16.2861 53.1838 16.2365C52.8767 16.104 52.6276 16.0932 49.4122 16.0717L45.9693 16.0481V24.7977H49.0248C50.8159 24.7977 52.3157 24.7654 52.6492 24.7193ZM56.7297 33.7053C56.7121 33.6758 56.8239 33.3561 56.9769 32.9951C57.1309 32.6341 57.5399 31.6513 57.8852 30.8087C58.2315 29.968 58.5581 29.1804 58.6121 29.0607C58.666 28.9401 58.8465 28.5144 59.0123 28.1132C59.3026 27.4118 59.4596 27.0381 59.5959 26.7291C59.6312 26.6487 59.795 26.2553 59.9608 25.8551C60.1256 25.453 60.3041 25.0273 60.3571 24.9076C60.41 24.7869 60.6219 24.2798 60.8279 23.7786L61.4145 22.3573C61.6617 21.7589 62.4895 19.8001 62.5837 19.5882C62.619 19.5087 62.7338 19.2302 62.8368 18.9692C62.9408 18.7083 63.0555 18.4297 63.0918 18.3503C63.1271 18.2699 63.2272 18.0403 63.3125 17.8402C63.3969 17.6391 63.5136 17.3723 63.5715 17.2458C63.6284 17.1193 63.6755 16.9947 63.6755 16.9692C63.6755 16.928 63.7883 16.6553 64.0394 16.0913C64.1845 15.7666 64.3925 15.2654 64.5543 14.8524C64.6213 14.671 64.7006 14.4943 64.7917 14.3237C64.8378 14.2609 65.0997 14.2335 65.6422 14.2335H66.4269L66.521 14.4699C66.7123 14.9456 67.549 16.9319 67.757 17.4027C67.7923 17.4832 67.9551 17.8765 68.1199 18.2767C68.2837 18.6779 68.4485 19.0713 68.4858 19.1517C68.5221 19.2311 68.8006 19.904 69.1037 20.6446C69.4078 21.3862 69.6854 22.0581 69.7217 22.1385C69.758 22.2189 69.9571 22.6937 70.1661 23.1949C70.6652 24.401 71.1733 25.6032 71.6904 26.8017C71.7267 26.8821 71.8414 27.1607 71.9454 27.4216C72.1239 27.865 72.2691 28.2083 72.4202 28.5497C72.4555 28.6311 72.5702 28.9097 72.6752 29.1696C72.7792 29.4305 72.9116 29.7464 72.9695 29.8729C73.0273 29.9994 73.0744 30.125 73.0744 30.1525C73.0744 30.1799 73.1725 30.4153 73.2932 30.6753C73.4128 30.9342 73.5119 31.1647 73.5119 31.1853C73.5119 31.2069 73.559 31.3276 73.6159 31.4541C73.6747 31.5806 73.8062 31.8965 73.9101 32.1574C74.0151 32.4173 74.1308 32.6969 74.1662 32.7764C74.4192 33.3374 74.532 33.617 74.532 33.6837C74.532 33.8004 72.531 33.7867 72.4359 33.669C72.3966 33.6189 72.0768 32.8735 71.7267 32.0113C71.3922 31.1835 71.0525 30.3579 70.7075 29.5345C70.6035 29.2736 70.4878 28.995 70.4525 28.9146C70.3011 28.5709 70.1559 28.2246 70.017 27.8758L69.9228 27.6384L65.5882 27.658L61.2536 27.6767L60.822 28.7331L60.3218 29.9582C60.2825 30.0504 60.2511 30.1426 60.2511 30.1623C60.2511 30.1937 60.0922 30.5684 59.8853 31.0274C59.85 31.1079 59.7342 31.3864 59.6302 31.6473C59.5372 31.8787 59.4421 32.1093 59.3448 32.3389C59.2918 32.4595 59.1398 32.8293 59.0064 33.1589L58.7651 33.7602H57.7636C57.2123 33.7602 56.7474 33.7357 56.7297 33.7053ZM69.4314 26.0709C69.4314 26.0346 69.1803 25.4108 68.9635 24.9076C68.9115 24.7869 68.7928 24.476 68.6986 24.2151C68.6203 23.9928 68.5319 23.7741 68.4338 23.5598C68.3908 23.4843 68.3587 23.4031 68.3386 23.3185C68.3377 23.2675 68.2101 22.9556 67.9737 22.4298C67.8857 22.2247 67.8004 22.0183 67.7177 21.8109C67.6251 21.579 67.53 21.3482 67.4323 21.1184C67.3793 20.9987 67.2763 20.7358 67.2028 20.5357C67.1354 20.3502 67.0594 20.1679 66.9752 19.9894C66.9322 19.9129 66.9005 19.8307 66.881 19.7451C66.881 19.7108 66.8339 19.5803 66.7761 19.4538C66.6458 19.1489 66.5215 18.8415 66.4033 18.5318C66.2068 18.0234 65.9991 17.5194 65.7805 17.0202C65.6549 16.7249 65.5715 16.7485 65.447 17.1153C65.3984 17.2622 65.3434 17.4069 65.2822 17.5489C65.2439 17.6283 65.1448 17.8579 65.0595 18.059C64.9751 18.2591 64.8761 18.4886 64.8398 18.569C64.7809 18.6995 63.9884 20.5946 63.0114 22.9399C62.8103 23.4206 62.618 23.8806 62.5817 23.96C62.5464 24.0405 62.3826 24.4338 62.2188 24.834C62.056 25.2362 61.8735 25.6707 61.8147 25.8022C61.7558 25.9336 61.7078 26.0572 61.7078 26.0758C61.7078 26.0945 63.4459 26.1092 65.5696 26.1092C67.6932 26.1092 69.4314 26.0925 69.4314 26.0709ZM93.8753 33.6709C93.8557 33.6199 93.8479 29.2333 93.8577 23.9237L93.8773 14.2698H95.7704L95.79 18.5857L95.8087 22.9036H107.247V14.2325H109.214V33.7602H107.247V24.6526H95.8087L95.7891 29.1882L95.7704 33.7239L94.8405 33.7435C94.1362 33.7592 93.9008 33.7416 93.8743 33.6709H93.8753ZM113.513 23.9963V14.2335H126.336V16.055H115.48V22.9036H124.952V24.6516H115.48V31.9387H126.555V33.7602H113.513V23.9963Z" fill="#CB2533"/>
</g>
<defs>
<linearGradient id="paint0_linear_48_57" x1="19.0848" y1="4.07637" x2="29.1351" y2="1.28179" gradientUnits="userSpaceOnUse">
<stop stop-color="#F59723"/>
<stop offset="0.312" stop-color="#F69822"/>
<stop offset="0.838" stop-color="#E87726"/>
</linearGradient>
<linearGradient id="paint1_linear_48_57" x1="-2.91476" y1="49.1829" x2="17.5271" y2="5.34368" gradientUnits="userSpaceOnUse">
<stop offset="0.323" stop-color="#9C2063"/>
<stop offset="0.63" stop-color="#C82037"/>
<stop offset="0.751" stop-color="#CC2135"/>
<stop offset="1" stop-color="#E87726"/>
</linearGradient>
<linearGradient id="paint2_linear_48_57" x1="3.94466" y1="45.9392" x2="16.1264" y2="19.8149" gradientUnits="userSpaceOnUse">
<stop stop-color="#282661"/>
<stop offset="0.095" stop-color="#662E8C"/>
<stop offset="0.788" stop-color="#9E2064"/>
<stop offset="0.949" stop-color="#CC2032"/>
</linearGradient>
<linearGradient id="paint3_linear_48_57" x1="-2.17811" y1="46.5286" x2="18.2638" y2="2.69035" gradientUnits="userSpaceOnUse">
<stop offset="0.323" stop-color="#9C2063"/>
<stop offset="0.63" stop-color="#C82037"/>
<stop offset="0.751" stop-color="#CC2135"/>
<stop offset="1" stop-color="#E87726"/>
</linearGradient>
<linearGradient id="paint4_linear_48_57" x1="-0.09272" y1="43.6095" x2="10.651" y2="20.5702" gradientUnits="userSpaceOnUse">
<stop stop-color="#282661"/>
<stop offset="0.095" stop-color="#662E8C"/>
<stop offset="0.788" stop-color="#9E2064"/>
<stop offset="0.949" stop-color="#CC2032"/>
</linearGradient>
<linearGradient id="paint5_linear_48_57" x1="2.3605" y1="48.6454" x2="22.8034" y2="4.80617" gradientUnits="userSpaceOnUse">
<stop offset="0.323" stop-color="#9C2063"/>
<stop offset="0.63" stop-color="#C82037"/>
<stop offset="0.751" stop-color="#CC2135"/>
<stop offset="1" stop-color="#E87726"/>
</linearGradient>
<linearGradient id="paint6_linear_48_57" x1="0.865615" y1="51.2586" x2="21.3075" y2="7.42029" gradientUnits="userSpaceOnUse">
<stop offset="0.323" stop-color="#9C2063"/>
<stop offset="0.63" stop-color="#C82037"/>
<stop offset="0.751" stop-color="#CC2135"/>
<stop offset="1" stop-color="#E87726"/>
</linearGradient>
<linearGradient id="paint7_linear_48_57" x1="3.55504" y1="49.2025" x2="23.9966" y2="5.36317" gradientUnits="userSpaceOnUse">
<stop offset="0.323" stop-color="#9C2063"/>
<stop offset="0.63" stop-color="#C82037"/>
<stop offset="0.751" stop-color="#CC2135"/>
<stop offset="1" stop-color="#E87726"/>
</linearGradient>
<clipPath id="clip0_48_57">
<rect width="128" height="48" fill="white"/>
</clipPath>
</defs>
</svg>
