<svg width="152" height="48" viewBox="0 0 152 48" fill="none" xmlns="http://www.w3.org/2000/svg">
<path d="M108.987 39.1897C105.614 38.9734 103.653 37.0545 103.134 33.4651C102.996 32.51 102.996 32.4853 102.981 26.2862L102.967 20.2861H105.952L105.964 26.0898C105.975 31.3201 105.981 31.9342 106.031 32.3012C106.234 33.795 106.638 34.7995 107.328 35.5199C107.879 36.0969 108.524 36.4343 109.417 36.6134C109.837 36.6987 111.037 36.6987 111.421 36.6134C112.284 36.4378 113.074 36.0094 113.692 35.3828C114.422 34.6537 114.962 33.6195 115.224 32.4507L115.311 32.0565L115.321 26.2047L115.331 20.3504H118.379V38.7535H115.363V37.293C115.363 36.302 115.352 35.8375 115.328 35.8449C115.26 35.9247 115.202 36.0132 115.156 36.1081C114.607 37.0849 113.799 37.8923 112.822 38.4421C111.686 39.0661 110.545 39.2885 108.987 39.1897ZM143.213 39.1748C141.985 39.0726 140.797 38.6851 139.745 38.043C137.585 36.7086 136.307 34.5092 135.934 31.4844C135.805 30.4366 135.788 29.0305 135.897 28.1409C136.138 26.1516 136.92 24.1993 138.035 22.8068C138.319 22.4484 138.968 21.8022 139.325 21.5168C140.288 20.7479 141.415 20.2106 142.619 19.9464C143.318 19.7944 144.549 19.7227 145.292 19.7907C147.157 19.9636 148.865 20.8409 150.026 22.2211C151.208 23.6235 151.855 25.5832 151.939 27.9963C151.952 28.4876 151.954 28.979 151.945 29.4704L151.929 30.2562L145.398 30.2636L138.866 30.2723V30.5639C138.866 31.4498 139.081 32.4593 139.455 33.3193C139.776 34.0594 140.331 34.8675 140.783 35.2592C141.712 36.0617 142.871 36.5511 144.094 36.6579C144.556 36.7011 145.733 36.6554 146.258 36.5751C147.759 36.3441 149.186 35.7559 150.336 34.8947C150.472 34.7921 150.602 34.697 150.626 34.6834C150.659 34.6624 150.668 34.9268 150.666 36.0426V37.4264L150.356 37.618C149.024 38.4329 147.531 38.9496 145.98 39.1328C145.508 39.1909 143.778 39.2168 143.213 39.1748ZM148.897 27.4922C148.897 26.0082 148.271 24.3587 147.385 23.5098C146.752 22.9039 145.945 22.513 145.078 22.3928C144.648 22.3261 143.742 22.3521 143.289 22.4423C142.362 22.6187 141.511 23.0709 140.846 23.7397C140.114 24.4644 139.56 25.3493 139.228 26.3245C139.105 26.6829 138.962 27.2698 138.916 27.596L138.895 27.7517H148.897V27.4922ZM60.2981 38.7115L65.2269 25.7784L70.1422 12.8861H73.3004L73.4313 13.2197C73.8317 14.2465 83.2704 38.7251 83.2704 38.7374C83.2704 38.7461 82.5142 38.7523 81.59 38.7523H79.9096L78.5504 35.1344L77.1888 31.5165H66.2339L66.187 31.6401C66.161 31.7068 65.5791 33.3354 64.8946 35.2567L63.6515 38.7523H61.9674C60.6354 38.7523 60.287 38.7448 60.2981 38.7115ZM76.1892 28.7562C76.1892 28.75 75.2748 26.2714 74.1554 23.2454C72.0623 17.5888 71.9449 17.2478 71.7793 16.3396C71.7015 15.9146 71.6619 15.9022 71.6162 16.2902C71.551 16.7111 71.456 17.1269 71.332 17.5344C71.2764 17.7062 70.3337 20.2898 69.2365 23.2775C68.5654 25.0959 67.9003 26.9163 67.241 28.7389C67.241 28.7537 69.255 28.7661 71.7151 28.7661C74.1764 28.7661 76.1892 28.7611 76.1892 28.7562ZM84.2861 38.2827V37.8107L89.7437 30.3168L95.2014 22.8228L90.259 22.8068L85.3191 22.7907L85.3104 21.5378L85.3018 20.2861H99.5952V21.1313L94.1376 28.666C91.135 32.8102 88.6787 36.2081 88.6787 36.2156C88.6787 36.2242 91.1054 36.2316 94.0708 36.2316H99.4642V38.7523H84.2861V38.2827ZM124.333 38.7312C124.321 38.7189 124.312 34.5635 124.312 29.4976V20.2849H127.295V22.184C127.295 23.2293 127.307 24.0832 127.322 24.0832C127.338 24.0832 127.411 23.9126 127.484 23.7038C127.83 22.7298 128.401 21.8514 129.151 21.1399C129.796 20.5146 130.619 20.1056 131.507 19.9698C131.763 19.9291 131.979 19.9204 132.491 19.934C133.133 19.9513 133.468 19.9982 133.858 20.1255L133.982 20.1651V23.259L133.63 23.0835C133.02 22.7743 132.336 22.6376 131.654 22.6882C131.174 22.7129 130.858 22.7746 130.474 22.918C129.694 23.2056 129.033 23.7453 128.595 24.4514C127.926 25.5422 127.501 26.7644 127.347 28.0346C127.322 28.2533 127.309 30.0388 127.302 33.5565L127.294 38.7547H125.825C125.017 38.7547 124.346 38.7436 124.333 38.7312Z" fill="#0089D6"/>
<path d="M16.9823 0.000741017H32.0564L16.4084 46.3643C16.2477 46.8409 15.9415 47.255 15.5329 47.5483C15.1244 47.8417 14.6341 47.9994 14.1312 47.9993H2.40019C2.0192 47.9993 1.6437 47.9085 1.3047 47.7346C0.965701 47.5608 0.672934 47.3087 0.450581 46.9993C0.228292 46.6899 0.0829083 46.332 0.026467 45.9552C-0.0299743 45.5784 0.00415062 45.1936 0.126016 44.8326L14.7051 1.63542C14.8659 1.15887 15.1721 0.744753 15.5806 0.451371C15.9891 0.157988 16.4793 0.000122031 16.9823 0V0.000741017Z" fill="url(#paint0_linear_48_56)"/>
<path d="M38.8864 31.099H14.9836C14.7614 31.0985 14.5441 31.165 14.3601 31.2898C14.1762 31.4146 14.0341 31.592 13.9525 31.7987C13.8708 32.0055 13.8534 32.2321 13.9025 32.4489C13.9515 32.6657 14.0648 32.8627 14.2275 33.0142L29.5872 47.3509C30.0347 47.7681 30.6238 47.9999 31.2355 47.9996H44.7703L38.8864 31.099Z" fill="#0078D4"/>
<path d="M16.9823 0.000627179C16.4739 -0.0012826 15.9781 0.159409 15.5675 0.459235C15.1569 0.75906 14.8529 1.18231 14.7 1.66717L0.144188 44.7932C0.0142433 45.1555 -0.0265402 45.5438 0.025287 45.9252C0.0771141 46.3066 0.220027 46.6699 0.441939 46.9843C0.663851 47.2988 0.958235 47.5552 1.30019 47.7319C1.64215 47.9085 2.02162 48.0002 2.40651 47.9992H14.4406C14.8888 47.9192 15.3077 47.7216 15.6545 47.4267C16.0014 47.1317 16.2637 46.75 16.4147 46.3205L19.3172 37.7658L29.6859 47.4364C30.1203 47.7959 30.6653 47.9946 31.2291 47.9992H44.7141L38.7996 31.0981L21.5588 31.1022L32.1109 0.000627179H16.9823Z" fill="url(#paint1_linear_48_56)"/>
<path d="M36.2357 1.63307C36.0752 1.15719 35.7693 0.743677 35.3613 0.450807C34.9533 0.157938 34.4637 0.000475435 33.9615 0.000610438H17.1619C17.6641 0.000664312 18.1536 0.158206 18.5615 0.451054C18.9694 0.743903 19.2751 1.15731 19.4358 1.63307L34.0152 44.8321C34.1373 45.1932 34.1716 45.5781 34.1153 45.955C34.059 46.332 33.9137 46.6901 33.6915 46.9997C33.4692 47.3093 33.1764 47.5615 32.8373 47.7355C32.4982 47.9094 32.1225 48.0001 31.7414 48H48.5417C48.9227 47.9997 49.2981 47.9088 49.637 47.7347C49.9759 47.5606 50.2685 47.3084 50.4906 46.9989C50.7128 46.6894 50.858 46.3315 50.9145 45.9547C50.9709 45.5779 50.9369 45.1931 50.8152 44.8321L36.2357 1.63307Z" fill="url(#paint2_linear_48_56)"/>
<defs>
<linearGradient id="paint0_linear_48_56" x1="22.4765" y1="3.55762" x2="6.8218" y2="49.8048" gradientUnits="userSpaceOnUse">
<stop stop-color="#114A8B"/>
<stop offset="1" stop-color="#0669BC"/>
</linearGradient>
<linearGradient id="paint1_linear_48_56" x1="27.3665" y1="25.11" x2="23.7455" y2="26.3345" gradientUnits="userSpaceOnUse">
<stop stop-opacity="0.3"/>
<stop offset="0.071" stop-opacity="0.2"/>
<stop offset="0.321" stop-opacity="0.1"/>
<stop offset="0.623" stop-opacity="0.05"/>
<stop offset="1" stop-opacity="0"/>
</linearGradient>
<linearGradient id="paint2_linear_48_56" x1="25.375" y1="2.20847" x2="42.5592" y2="47.9899" gradientUnits="userSpaceOnUse">
<stop stop-color="#3CCBF4"/>
<stop offset="1" stop-color="#2892DF"/>
</linearGradient>
</defs>
</svg>
