<svg width="185" height="49" viewBox="0 0 185 49" fill="none" xmlns="http://www.w3.org/2000/svg">
<g clip-path="url(#clip0_48_105)">
<path d="M24.5081 0.690918C11.2481 0.690918 0.508064 11.4369 0.508064 24.6909C0.508064 35.2969 7.38406 44.2909 16.9181 47.4609C18.1181 47.6869 18.5581 46.9449 18.5581 46.3069C18.5581 45.7369 18.5381 44.2269 18.5281 42.2269C11.8521 43.6749 10.4441 39.0069 10.4441 39.0069C9.35206 36.2369 7.77406 35.4969 7.77406 35.4969C5.60006 34.0089 7.94206 34.0389 7.94206 34.0389C10.3521 34.2069 11.6181 36.5109 11.6181 36.5109C13.7581 40.1809 17.2361 39.1209 18.6081 38.5069C18.8241 36.9549 19.4421 35.8969 20.1281 35.2969C14.7981 34.6969 9.19606 32.6329 9.19606 23.4369C9.19606 20.8169 10.1261 18.6769 11.6661 16.9969C11.3961 16.3909 10.5861 13.9509 11.8761 10.6449C11.8761 10.6449 13.8861 10.0009 18.4761 13.1049C20.3961 12.5709 22.4361 12.3069 24.4761 12.2949C26.5161 12.3069 28.5561 12.5709 30.4761 13.1049C35.0361 10.0009 37.0461 10.6449 37.0461 10.6449C38.3361 13.9509 37.5261 16.3909 37.2861 16.9969C38.8161 18.6769 39.7461 20.8169 39.7461 23.4369C39.7461 32.6569 34.1361 34.6869 28.7961 35.2769C29.6361 35.9969 30.4161 37.4689 30.4161 39.7169C30.4161 42.9289 30.3861 45.5089 30.3861 46.2889C30.3861 46.9189 30.8061 47.6689 32.0361 47.4289C41.6381 44.2809 48.5081 35.2809 48.5081 24.6909C48.5081 11.4369 37.7621 0.690918 24.5081 0.690918Z" fill="black"/>
</g>
<g clip-path="url(#clip1_48_105)">
<path fill-rule="evenodd" clip-rule="evenodd" d="M86.483 40.336C85.987 40.336 85.603 40.156 85.603 39.536V18.58C85.603 18.306 85.851 18.02 86.127 18.02H92.167C92.44 18.02 92.667 18.246 92.667 18.524V39.528C92.667 40.044 92.517 40.336 91.922 40.336H86.483ZM160.103 18.068H154.097C153.824 18.068 153.597 18.294 153.597 18.574V34.11C153.597 34.11 152.072 35.21 149.904 35.21C147.737 35.21 147.144 34.23 147.144 32.112V18.574C147.144 18.294 146.924 18.058 146.644 18.058H140.546C140.27 18.058 140.046 18.284 140.046 18.564V33.128C140.046 39.426 143.556 40.97 148.388 40.97C152.352 40.97 155.548 38.78 155.548 38.78C155.548 38.78 155.698 39.932 155.768 40.068C155.838 40.202 156.018 40.34 156.208 40.34L160.086 40.326C160.366 40.326 160.586 40.098 160.586 39.82V18.576C160.586 18.296 160.366 18.068 160.086 18.068H160.103ZM174.163 35.208C172.076 35.145 170.663 34.198 170.663 34.198V24.166C170.663 24.166 172.056 23.31 173.768 23.158C175.932 22.978 178.018 23.618 178.018 28.798C178.018 34.236 177.078 35.316 174.158 35.23L174.162 35.21L174.163 35.208ZM110.066 18.018H105.523L105.517 12.018C105.517 11.79 105.397 11.678 105.137 11.678H98.947C98.707 11.678 98.577 11.782 98.577 12.014V18.214C98.577 18.214 95.477 18.964 95.277 19.024C95.077 19.084 94.917 19.277 94.917 19.507V23.407C94.917 23.687 95.137 23.91 95.417 23.91H98.597V33.283C98.597 40.246 103.481 40.93 106.775 40.93C108.282 40.93 110.085 40.43 110.382 40.33C110.562 40.25 110.662 40.07 110.662 39.87V35.59C110.662 35.31 110.422 35.075 110.162 35.075C109.902 35.075 109.222 35.183 108.522 35.183C106.295 35.183 105.539 34.143 105.539 32.803V23.905H110.079C110.349 23.905 110.579 23.677 110.579 23.397V18.517C110.579 18.237 110.349 18.01 110.079 18.01L110.059 18.016L110.066 18.018ZM81.67 21.204H70.915C70.639 21.204 70.415 21.428 70.415 21.704V26.964C70.415 27.244 70.639 27.466 70.915 27.466H75.11V34C75.11 34 74.17 34.32 71.563 34.32C68.49 34.32 64.2 33.2 64.2 23.76C64.2 14.32 68.658 13.077 72.857 13.077C76.477 13.077 78.057 13.717 79.037 14.025C79.35 14.121 79.637 13.809 79.637 13.531L80.837 8.46098C80.837 8.33098 80.797 8.17098 80.647 8.06698C80.247 7.77698 77.777 6.39698 71.547 6.39698C64.37 6.38998 57 9.44598 57 24.13C57 38.81 65.43 41 72.537 41C78.417 41 81.987 38.485 81.987 38.485C82.14 38.405 82.157 38.199 82.157 38.105V21.707C82.157 21.427 81.932 21.204 81.657 21.204H81.672H81.67ZM137.093 8.14998C137.093 7.86998 136.873 7.64398 136.593 7.64398H130.54C130.263 7.64398 130.04 7.86998 130.04 8.14998V19.852H120.6V8.14998C120.6 7.86998 120.38 7.64398 120.1 7.64398H114.045C113.769 7.64398 113.545 7.86998 113.545 8.14998V39.832C113.545 40.112 113.769 40.342 114.045 40.342H120.1C120.38 40.342 120.6 40.114 120.6 39.834V26.294H130.038L130.022 39.848C130.022 40.128 130.246 40.358 130.522 40.358H136.592C136.872 40.358 137.092 40.13 137.092 39.85L137.093 8.14998ZM176.527 17.356C173.117 17.356 170.797 18.876 170.797 18.876V8.14998C170.797 7.86998 170.572 7.64398 170.297 7.64398H164.225C163.949 7.64398 163.725 7.86998 163.725 8.14998V39.832C163.725 40.112 163.949 40.342 164.225 40.342H168.44C168.63 40.342 168.77 40.242 168.88 40.072C168.982 39.902 169.132 38.612 169.132 38.612C169.132 38.612 171.616 40.964 176.317 40.964C181.837 40.964 184.999 38.164 184.999 28.398C184.999 18.632 179.939 17.356 176.529 17.356H176.519H176.527ZM93.097 12.306C93.097 10.126 91.351 8.36398 89.194 8.36398C87.04 8.36398 85.29 10.124 85.29 12.307C85.29 14.487 87.04 16.252 89.192 16.252C91.352 16.252 93.097 14.484 93.097 12.306Z" fill="black"/>
</g>
<defs>
<clipPath id="clip0_48_105">
<rect width="48" height="48" fill="white" transform="translate(0.508064 0.0968018)"/>
</clipPath>
<clipPath id="clip1_48_105">
<rect width="128" height="35" fill="white" transform="translate(57 6)"/>
</clipPath>
</defs>
</svg>
