<svg width="171" height="48" viewBox="0 0 171 48" fill="none" xmlns="http://www.w3.org/2000/svg">
<path d="M23.9278 0H24.0391C24.6103 0.272022 25.1665 0.574192 25.7056 0.905235C31.9108 4.4736 38.1161 8.0431 44.3213 11.6137C44.5614 11.7419 44.7573 11.9392 44.8839 12.1801C45.0105 12.421 45.0618 12.6944 45.0311 12.9648C45.0174 20.4896 45.0311 28.0125 45.0225 35.534C44.9418 35.8929 44.7224 36.2054 44.4122 36.4032C37.8138 40.2024 31.2148 43.9993 24.6153 47.794C24.4554 47.9158 24.2625 47.9871 24.0618 47.9983C23.8611 48.0097 23.6614 47.9606 23.4889 47.8575C16.8825 44.0697 10.2824 40.275 3.68857 36.4734C3.47427 36.3721 3.29478 36.2095 3.17274 36.0064C3.05068 35.8032 2.99155 35.5684 3.00279 35.3316C3.00279 27.8085 3.00279 20.286 3.00279 12.7642C2.98662 12.5284 3.04111 12.2932 3.1593 12.0886C3.27748 11.884 3.454 11.7193 3.66628 11.6155C9.86349 8.05167 16.0607 4.4856 22.2579 0.917237C22.8099 0.601776 23.3517 0.267456 23.9278 0Z" fill="#019639"/>
<path d="M11.6162 14.6382C11.6162 20.8434 11.6162 27.0492 11.6162 33.2556C11.6082 33.5993 11.6689 33.9411 11.7946 34.2611C11.9203 34.581 12.1085 34.8728 12.3482 35.1192C12.8077 35.5731 13.409 35.8557 14.0517 35.9201C14.6944 35.9843 15.3398 35.8263 15.8801 35.4723C16.2417 35.2266 16.5378 34.8962 16.7424 34.5098C16.9472 34.1234 17.0543 33.6929 17.0544 33.2556C17.0544 28.7637 17.0459 24.2718 17.0544 19.7799C21.1497 24.6833 25.2535 29.5797 29.3659 34.4694C29.9373 35.0483 30.6449 35.4743 31.4237 35.7086C32.2026 35.9427 33.0277 35.9777 33.8235 35.8101C34.3855 35.6994 34.8972 35.4113 35.2833 34.9883C35.6692 34.5651 35.9094 34.0293 35.9684 33.4596C35.9775 27.1263 35.9775 20.7938 35.9684 14.4616C35.9094 13.7857 35.599 13.1565 35.0989 12.6981C34.5987 12.2396 33.9449 11.9854 33.2664 11.9854C32.588 11.9854 31.9341 12.2396 31.4339 12.6981C30.9336 13.1565 30.6234 13.7857 30.5645 14.4616C30.5645 19.0256 30.537 23.5842 30.5645 28.1465C26.5422 23.4042 22.5699 18.6209 18.5631 13.8616C18.0349 13.1842 17.3357 12.66 16.5374 12.343C15.7391 12.026 14.8706 11.9276 14.0216 12.058C13.3784 12.1296 12.7822 12.4292 12.3409 12.9025C11.8996 13.3759 11.6425 13.9916 11.6162 14.6382Z" fill="white"/>
<g clip-path="url(#clip0_48_106)">
<path d="M57.4856 33.6034V14.5387L76.5481 33.6034V14.5387" stroke="#009900" stroke-width="5" stroke-linecap="round" stroke-linejoin="round"/>
<path d="M88.1253 12.0632L87.4378 13.3445L82.1253 23.0007L81.4378 24.2195L82.1253 25.4382L87.4378 34.782L88.1565 36.0632H89.6253H100.5H102.063L102.75 34.657L106.719 26.657L108.5 23.032H104.469L94.3128 23.0632C92.992 23.0446 91.7771 24.2423 91.7771 25.5632C91.7771 26.8841 92.992 28.0819 94.3128 28.0632L100.438 28.032L98.9378 31.0632H91.0628L87.1565 24.1882L91.094 17.0632H99.4712L101.424 21.071H106.456L103.284 13.4695L102.596 12.0632H101.034H89.6253H88.1253Z" fill="#009900"/>
<path d="M113.452 12.032C112.143 12.0484 110.966 13.2543 110.983 14.5633V21.0778H115.983V14.5633C115.999 13.2335 114.781 12.0154 113.452 12.032Z" fill="#009900"/>
<path d="M140.529 33.6517V14.587L121.466 33.6517V14.587" stroke="#009900" stroke-width="5" stroke-linecap="round" stroke-linejoin="round"/>
<path d="M148.453 14.5801L167.538 33.5979" stroke="#009900" stroke-width="5" stroke-linecap="round" stroke-linejoin="round"/>
<path d="M167.56 14.5801L148.475 33.5979" stroke="#009900" stroke-width="5" stroke-linecap="round" stroke-linejoin="round"/>
<path d="M113.452 36.0798C112.143 36.0634 110.966 34.8576 110.983 33.5486V23.0842H115.983V33.5486C115.999 34.8784 114.781 36.0964 113.452 36.0798Z" fill="#009900"/>
</g>
<defs>
<clipPath id="clip0_48_106">
<rect width="115.119" height="24.1873" fill="white" transform="translate(55 12)"/>
</clipPath>
</defs>
</svg>
