<svg width="148" height="48" viewBox="0 0 148 48" fill="none" xmlns="http://www.w3.org/2000/svg">
<path d="M29.4326 29.2002C32.053 29.2002 34.1772 27.076 34.1772 24.4556C34.1772 21.8352 32.053 19.7109 29.4326 19.7109C26.8122 19.7109 24.688 21.8352 24.688 24.4556C24.688 27.076 26.8122 29.2002 29.4326 29.2002Z" fill="#00D8FF"/>
<path fill-rule="evenodd" clip-rule="evenodd" d="M29.4327 14.8085C35.803 14.8085 41.7209 15.7226 46.1829 17.2587C51.5591 19.1095 54.8645 21.915 54.8645 24.4553C54.8645 27.1025 51.3614 30.0829 45.5881 31.9958C41.2234 33.4418 35.4798 34.1967 29.4327 34.1967C23.2328 34.1967 17.3618 33.4882 12.9479 31.9799C7.36354 30.0711 4 27.0521 4 24.4553C4 21.9356 7.15603 19.1518 12.4566 17.3038C16.9353 15.7423 22.9993 14.8085 29.4318 14.8085H29.4327Z" stroke="#00D8FF" stroke-width="1.66272"/>
<path fill-rule="evenodd" clip-rule="evenodd" d="M21.0348 19.6598C24.2173 14.1414 27.9654 9.47157 31.5253 6.37361C35.8144 2.64104 39.896 1.17925 42.0965 2.44819C44.3898 3.77066 45.2216 8.29437 43.9944 14.251C43.0676 18.7546 40.8513 24.1071 37.8303 29.3455C34.7329 34.7163 31.1862 39.4482 27.6749 42.5174C23.2317 46.4015 18.936 47.8071 16.6865 46.5098C14.5036 45.2519 13.6689 41.1265 14.716 35.6114C15.6008 30.9516 17.8212 25.2321 21.0338 19.6597L21.0348 19.6598Z" stroke="#00D8FF" stroke-width="1.66272"/>
<path fill-rule="evenodd" clip-rule="evenodd" d="M21.0428 29.3596C17.8513 23.8475 15.6784 18.267 14.7714 13.6357C13.6796 8.05568 14.4515 3.78931 16.65 2.51668C18.9411 1.19034 23.2756 2.72892 27.8234 6.76697C31.2618 9.81992 34.7926 14.4123 37.8223 19.6458C40.9286 25.0114 43.2567 30.4474 44.1624 35.0223C45.3084 40.8117 44.3809 45.2351 42.1334 46.5361C39.9528 47.7985 35.9623 46.462 31.7073 42.8003C28.1121 39.7067 24.2658 34.9265 21.0428 29.3595V29.3596Z" stroke="#00D8FF" stroke-width="1.66272"/>
<path fill-rule="evenodd" clip-rule="evenodd" d="M82.0992 36.5777L76.2837 27.7917C79.2229 27.5323 81.8713 25.4027 81.8713 21.512C81.8713 17.5531 79.0618 15.0194 75.1206 15.0194H66.4656V36.5613H69.1468V28.0019H73.4429L78.9335 36.5613L82.0992 36.5777ZM74.7998 25.6607H69.1481V17.4248H74.7998C77.3526 17.4248 79.0959 19.1039 79.0959 21.527C79.0959 23.9502 77.3513 25.6634 74.7998 25.6634V25.6607ZM92.0798 36.964C94.6326 36.964 96.7308 36.1245 98.2816 34.5751L97.1185 32.9915C95.8899 34.2515 94.0824 34.9614 92.3064 34.9614C88.9481 34.9614 86.88 32.5069 86.6861 29.5691H99.3137V28.9548C99.3137 24.2723 96.5356 20.5892 91.819 20.5892C87.3619 20.5892 84.1333 24.2396 84.1333 28.7609C84.1333 33.6386 87.4601 36.9518 92.0784 36.9518L92.0798 36.964ZM96.926 27.7903H86.6875C86.8172 25.4013 88.4622 22.5891 91.7904 22.5891C95.3438 22.5891 96.8933 25.4641 96.926 27.7903ZM115.402 36.5763V25.8532C115.402 22.0745 112.658 20.5878 109.362 20.5878C106.81 20.5878 104.808 21.4274 103.129 23.172L104.26 24.8512C105.648 23.3659 107.167 22.6874 109.04 22.6874C111.301 22.6874 112.981 23.8819 112.981 25.9815V28.791C111.721 27.3371 109.945 26.6586 107.813 26.6586C105.165 26.6586 102.352 28.3063 102.352 31.7943C102.352 35.1853 105.162 36.9627 107.813 36.9627C109.913 36.9627 111.69 36.22 112.981 34.7989V36.5736L115.402 36.5763ZM108.685 35.2194C106.425 35.2194 104.841 33.7997 104.841 31.8284C104.841 29.8257 106.425 28.4046 108.685 28.4046C110.397 28.4046 112.044 29.0503 112.981 30.3431V33.2823C112.045 34.5737 110.397 35.2194 108.685 35.2194ZM127.115 36.964C129.957 36.964 131.636 35.8009 132.832 34.2515L131.217 32.7662C130.184 34.1546 128.859 34.8003 127.258 34.8003C123.931 34.8003 121.866 32.2161 121.866 28.7609C121.866 25.3057 123.933 22.7543 127.258 22.7543C128.873 22.7543 130.197 23.3686 131.217 24.7884L132.832 23.3031C131.637 21.7523 129.957 20.5905 127.115 20.5905C122.464 20.5905 119.331 24.144 119.331 28.7623C119.331 33.4133 122.464 36.9531 127.115 36.9531V36.964ZM140.166 36.964C141.585 36.964 142.459 36.5436 143.073 35.9634L142.363 34.1546C142.04 34.5095 141.408 34.8003 140.716 34.8003C139.651 34.8003 139.132 33.9607 139.132 32.7976V23.1079H142.299V20.9769H139.132V16.7136H136.709V20.9769H134.125V23.1092H136.709V33.3164C136.709 35.6426 137.872 36.9668 140.166 36.9668V36.964Z" fill="#00D8FF"/>
</svg>
