<svg width="253" height="48" viewBox="0 0 253 48" fill="none" xmlns="http://www.w3.org/2000/svg">
<path d="M5.26048 4.00394C4.54203 4.03044 3.83642 4.20236 3.18631 4.50931C2.52851 4.78884 1.93494 5.20015 1.44221 5.7179C0.949477 6.23565 0.568036 6.84885 0.321406 7.51968C0.0747764 8.19051 -0.0318129 8.90476 0.00821158 9.61837C0.0482361 10.332 0.234026 11.0298 0.554123 11.6689L12.5359 37.7276C14.4205 41.7285 16.5368 43.9606 20.1271 43.9606C23.7279 43.9606 25.8337 41.6443 27.7078 37.7276L38.2681 14.7117C38.3843 14.4095 38.5942 14.1525 38.867 13.9782C39.1398 13.8039 39.4613 13.7215 39.7843 13.743C40.2256 13.7513 40.646 13.9324 40.9551 14.2475C41.2642 14.5625 41.4374 14.9863 41.4373 15.4276V37.7276C41.3699 38.5054 41.4648 39.2887 41.7162 40.0279C41.9676 40.767 42.3699 41.4459 42.8976 42.0213C43.4253 42.5967 44.0668 43.0561 44.7815 43.3704C45.4962 43.6847 46.2684 43.847 47.0491 43.847C47.8299 43.847 48.6021 43.6847 49.3168 43.3704C50.0314 43.0561 50.673 42.5967 51.2007 42.0213C51.7283 41.4459 52.1306 40.767 52.382 40.0279C52.6334 39.2887 52.7284 38.5054 52.661 37.7276V19.5128C52.6281 18.7282 52.761 17.9454 53.0509 17.2155C53.3408 16.4857 53.7812 15.8251 54.3434 15.2767C54.9056 14.7284 55.577 14.3047 56.3139 14.0332C57.0508 13.7617 57.8367 13.6485 58.6202 13.7009C59.3859 13.6686 60.1498 13.7973 60.8626 14.0788C61.5754 14.3604 62.2211 14.7884 62.758 15.3352C63.2949 15.8821 63.7111 16.5355 63.9795 17.2533C64.2479 17.9711 64.3627 18.7373 64.3163 19.5023V37.717C64.2239 38.5032 64.2994 39.3001 64.538 40.0549C64.7766 40.8097 65.1728 41.5053 65.7003 42.0955C66.2279 42.6858 66.8747 43.1572 67.5981 43.4788C68.3215 43.8003 69.1049 43.9645 69.8965 43.9606C70.6876 43.9585 71.4695 43.7911 72.1921 43.4691C72.9147 43.1471 73.5619 42.6775 74.0923 42.0906C74.6227 41.5037 75.0246 40.8124 75.2721 40.061C75.5196 39.3096 75.6072 38.5148 75.5294 37.7276V19.5128C75.4969 18.73 75.6292 17.9492 75.9178 17.2209C76.2065 16.4925 76.6449 15.833 77.2048 15.285C77.7647 14.7371 78.4335 14.3129 79.1679 14.04C79.9023 13.7671 80.6858 13.6516 81.4676 13.7009C82.235 13.6655 83.0013 13.792 83.7166 14.0722C84.4319 14.3524 85.0802 14.7799 85.6195 15.3271C86.1587 15.8743 86.5767 16.5288 86.8464 17.2481C87.1161 17.9674 87.2314 18.7355 87.1848 19.5023V37.717C87.0925 38.5015 87.1676 39.2965 87.4049 40.0499C87.6423 40.8032 88.0366 41.4977 88.5618 42.0876C89.087 42.6775 89.7313 43.1494 90.4522 43.4723C91.173 43.7951 91.9541 43.9615 92.7439 43.9606C93.537 43.9651 94.322 43.8021 95.0477 43.4823C95.7735 43.1624 96.4234 42.6929 96.9552 42.1046C97.4869 41.5162 97.8884 40.8221 98.1334 40.0679C98.3784 39.3136 98.4613 38.5161 98.3768 37.7276V16.9964C98.3725 15.2495 98.016 13.5213 97.3285 11.9153C96.641 10.3094 95.6367 8.8585 94.3757 7.64954C93.1146 6.44058 91.6227 5.49835 89.9892 4.87919C88.3556 4.26004 86.614 3.97668 84.8684 4.04605C80.3539 4.12403 76.0478 5.95978 72.8656 9.16303C71.5162 7.42604 69.756 6.05186 67.7435 5.16415C65.731 4.27644 63.5293 3.90308 61.3367 4.07764C57.1053 4.46255 53.1245 6.25279 50.0288 9.16303C48.8088 7.63576 47.2729 6.39049 45.5264 5.51269C43.7799 4.63489 41.8641 4.14535 39.9106 4.07764C37.2603 3.97058 34.6455 4.71674 32.4508 6.2064C30.2561 7.69607 28.5973 9.85061 27.7183 12.3532L20.0429 30.4206L10.2195 7.22574L10.3353 7.18363C9.90673 6.20518 9.19335 5.37851 8.28815 4.81135C7.38294 4.24419 6.32789 3.96283 5.26048 4.00394ZM199.306 4.63566C198.932 4.64115 198.564 4.72013 198.221 4.86809C197.878 5.01605 197.568 5.23009 197.308 5.49798C197.048 5.76588 196.843 6.08237 196.705 6.42941C196.567 6.77644 196.499 7.14721 196.505 7.52054H196.526V40.6019C196.471 41.0041 196.502 41.4134 196.619 41.8023C196.735 42.1912 196.933 42.5507 197.2 42.8566C197.467 43.1625 197.796 43.4077 198.166 43.5757C198.535 43.7437 198.936 43.8306 199.342 43.8306C199.748 43.8306 200.15 43.7437 200.519 43.5757C200.889 43.4077 201.218 43.1625 201.485 42.8566C201.751 42.5507 201.95 42.1912 202.066 41.8023C202.182 41.4134 202.214 41.0041 202.159 40.6019V27.7358C202.159 16.8174 208.171 11.3109 215.53 10.437C216.236 10.3628 216.887 10.0238 217.352 9.48831C217.817 8.95287 218.061 8.26091 218.036 7.55213C218.052 7.17858 217.991 6.80572 217.857 6.4569C217.722 6.10807 217.517 5.7908 217.254 5.52493C216.991 5.25907 216.676 5.05033 216.329 4.91181C215.981 4.77328 215.609 4.70795 215.236 4.71989C212.416 4.91801 209.705 5.88694 207.399 7.52089C205.093 9.15485 203.28 11.391 202.159 13.9852V7.52054C202.17 7.14126 202.105 6.76359 201.966 6.41048C201.827 6.05736 201.618 5.73615 201.351 5.46636C201.084 5.19657 200.765 4.98382 200.413 4.84102C200.062 4.69822 199.685 4.62835 199.306 4.63566ZM128.394 4.71989C127.766 4.75982 127.168 5.005 126.692 5.41777C126.217 5.83054 125.89 6.38806 125.762 7.00463L116.16 34.6637L106.663 7.07834C106.519 6.42093 106.154 5.83266 105.629 5.41129C105.104 4.98991 104.451 4.76079 103.778 4.76201C103.042 4.75061 102.332 5.02917 101.8 5.53747C101.268 6.04578 100.957 6.743 100.935 7.47843C100.978 7.99894 101.098 8.51008 101.293 8.99457L112.77 40.9704L112.98 40.8967C113.156 41.6044 113.557 42.2358 114.123 42.6955C114.689 43.1551 115.389 43.4181 116.118 43.4447C116.847 43.4414 117.553 43.1859 118.115 42.7214C118.677 42.257 119.062 41.6123 119.203 40.8967L128.71 13.7009L138.144 40.8967C138.285 41.6123 138.669 42.257 139.232 42.7214C139.794 43.1859 140.5 43.4414 141.229 43.4447H141.418C142.138 43.407 142.826 43.139 143.382 42.6802C143.937 42.2214 144.33 41.5961 144.503 40.8967L156.053 8.91034C156.242 8.42441 156.359 7.91372 156.401 7.3942C156.379 6.67552 156.073 5.99489 155.55 5.50149C155.027 5.00808 154.329 4.74216 153.611 4.76201C152.973 4.75856 152.355 4.97588 151.859 5.37703C151.364 5.77817 151.023 6.3384 150.894 6.96251L141.229 34.6531L131.711 7.00463C131.55 6.35057 131.174 5.76959 130.643 5.35517C130.112 4.94075 129.457 4.71699 128.784 4.71989H128.521C128.479 4.71897 128.436 4.71897 128.394 4.71989ZM235.451 4.80412C232.992 4.88289 230.573 5.45336 228.338 6.48187C226.103 7.51037 224.097 8.97608 222.437 10.7925C220.778 12.609 219.499 14.7394 218.676 17.0581C217.853 19.3767 217.503 21.8367 217.647 24.2929C217.514 26.8099 217.894 29.3277 218.765 31.6931C219.636 34.0584 220.979 36.2218 222.713 38.0518C224.446 39.8817 226.534 41.3399 228.848 42.3376C231.163 43.3353 233.657 43.8517 236.177 43.8553L236.093 43.9922C238.693 44.0673 241.28 43.6017 243.69 42.6248C246.101 41.6479 248.282 40.1811 250.096 38.3172C250.36 38.0978 250.573 37.8245 250.722 37.5157C250.871 37.207 250.952 36.87 250.96 36.5273C250.954 36.0676 250.816 35.6192 250.563 35.2354C250.31 34.8516 249.952 34.5486 249.532 34.3623C249.112 34.176 248.647 34.1143 248.193 34.1845C247.738 34.2547 247.314 34.4539 246.969 34.7584C245.558 36.1555 243.884 37.2605 242.045 38.0102C240.206 38.76 238.237 39.1398 236.251 39.1279C232.845 39.1371 229.572 37.8121 227.131 35.4366C224.691 33.0612 223.278 29.8243 223.195 26.4197H250.096C250.784 26.4169 251.443 26.1417 251.928 25.6542C252.414 25.1668 252.686 24.507 252.686 23.8191C252.686 13.8694 246.443 4.80412 235.451 4.80412ZM174.974 4.82518C174.418 4.81831 173.863 4.83939 173.31 4.88835C169.41 4.71548 165.524 5.45452 161.96 7.04675C161.49 7.22094 161.089 7.54295 160.818 7.96442C160.546 8.3859 160.419 8.88407 160.454 9.38413C160.484 10.025 160.756 10.6308 161.215 11.0786C161.675 11.5263 162.287 11.7825 162.929 11.7952C163.275 11.7737 163.614 11.688 163.929 11.5425C166.681 10.29 169.689 9.70553 172.71 9.83687C179.985 9.83687 183.976 13.3535 183.976 20.1445V21.4606C180.203 20.3664 176.29 19.8342 172.362 19.8813C162.971 19.8813 156.359 24.0928 156.359 32.0947L156.327 32.0525C156.327 39.8017 163.392 43.8132 170.436 43.8132C173.068 43.8885 175.681 43.3358 178.058 42.2006C180.434 41.0654 182.506 39.3805 184.102 37.2853V40.8967C184.098 41.2472 184.164 41.5949 184.297 41.919C184.431 42.2431 184.628 42.5369 184.878 42.7828C185.128 43.0286 185.425 43.2215 185.751 43.3497C186.077 43.4779 186.426 43.5389 186.776 43.5289C187.138 43.5348 187.498 43.4671 187.833 43.33C188.168 43.1929 188.471 42.9893 188.725 42.7314C188.979 42.4734 189.178 42.1667 189.31 41.8296C189.442 41.4925 189.504 41.1322 189.493 40.7704V19.8918C189.606 17.8818 189.31 15.8697 188.624 13.977C187.939 12.0842 186.877 10.3499 185.502 8.87875C182.576 6.33541 178.85 4.90072 174.974 4.82518ZM235.188 9.35254C242.705 9.35254 246.611 15.3013 247.18 22.1345H223.195C223.206 18.881 224.45 15.7526 226.675 13.379C228.9 11.0055 231.942 9.5735 235.188 9.35254ZM173.226 23.9033C176.993 23.9065 180.741 24.449 184.355 25.5142V29.1677C184.355 35.1691 178.68 39.4122 171.72 39.4122C166.614 39.4122 162.202 36.6641 162.202 31.9051C162.202 26.9882 166.15 23.9033 173.226 23.9033Z" fill="black"/>
</svg>
